<svg xmlns="http://www.w3.org/2000/svg" xmlns:xlink="http://www.w3.org/1999/xlink" width="500" zoomAndPan="magnify" viewBox="0 0 375 374.999991" height="500" preserveAspectRatio="xMidYMid meet" version="1.0"><defs><g/><clipPath id="id1"><path d="M 38 131 L 134 131 L 134 226.683594 L 38 226.683594 Z M 38 131 " clip-rule="nonzero"/></clipPath><clipPath id="id2"><path d="M 132 191 L 163 191 L 163 220 L 132 220 Z M 132 191 " clip-rule="nonzero"/></clipPath><clipPath id="id3"><path d="M 129.351562 202.367188 L 159.460938 188.859375 L 170.207031 212.808594 L 140.097656 226.316406 Z M 129.351562 202.367188 " clip-rule="nonzero"/></clipPath><clipPath id="id4"><path d="M 129.351562 202.367188 L 159.460938 188.859375 L 170.207031 212.808594 L 140.097656 226.316406 Z M 129.351562 202.367188 " clip-rule="nonzero"/></clipPath></defs><g clip-path="url(#id1)"><path fill="#f1a634" d="M 127.058594 182.179688 L 123.980469 178.753906 L 127.058594 175.324219 C 129.242188 172.894531 130.902344 170.144531 132.03125 167.078125 C 133.171875 164.023438 133.746094 160.867188 133.75 157.609375 C 133.765625 154.03125 133.070312 150.601562 131.667969 147.3125 C 131.003906 145.726562 130.191406 144.21875 129.234375 142.789062 C 128.277344 141.359375 127.191406 140.035156 125.976562 138.816406 C 124.765625 137.59375 123.445312 136.503906 122.019531 135.539062 C 120.59375 134.574219 119.089844 133.757812 117.507812 133.082031 C 114.203125 131.675781 110.757812 130.988281 107.167969 131.015625 L 38.285156 131.015625 L 38.285156 162.433594 L 107.167969 162.351562 C 107.523438 162.351562 107.878906 162.316406 108.226562 162.246094 C 108.578125 162.175781 108.917969 162.074219 109.246094 161.9375 C 109.578125 161.800781 109.890625 161.632812 110.1875 161.433594 C 110.484375 161.234375 110.757812 161.007812 111.011719 160.757812 C 111.261719 160.503906 111.488281 160.230469 111.6875 159.933594 C 111.886719 159.636719 112.050781 159.324219 112.1875 158.992188 C 112.324219 158.664062 112.429688 158.324219 112.5 157.972656 C 112.566406 157.621094 112.601562 157.269531 112.601562 156.914062 C 112.601562 156.554688 112.566406 156.203125 112.5 155.851562 C 112.429688 155.5 112.324219 155.160156 112.1875 154.832031 C 112.050781 154.503906 111.886719 154.1875 111.6875 153.890625 C 111.488281 153.59375 111.261719 153.320312 111.011719 153.070312 C 110.757812 152.816406 110.484375 152.589844 110.1875 152.394531 C 109.890625 152.195312 109.578125 152.027344 109.246094 151.890625 C 108.917969 151.753906 108.578125 151.652344 108.226562 151.582031 C 107.878906 151.511719 107.523438 151.476562 107.167969 151.476562 L 49.167969 151.476562 L 49.167969 141.902344 L 107.160156 141.902344 C 108.195312 141.902344 109.214844 142 110.226562 142.203125 C 111.238281 142.402344 112.21875 142.703125 113.171875 143.097656 C 114.125 143.492188 115.03125 143.976562 115.890625 144.546875 C 116.746094 145.121094 117.539062 145.773438 118.269531 146.5 C 119 147.230469 119.648438 148.023438 120.222656 148.882812 C 120.796875 149.738281 121.28125 150.644531 121.675781 151.597656 C 122.070312 152.550781 122.367188 153.53125 122.566406 154.542969 C 122.769531 155.554688 122.871094 156.578125 122.871094 157.609375 C 122.871094 158.640625 122.769531 159.660156 122.570312 160.671875 C 122.367188 161.683594 122.070312 162.667969 121.675781 163.621094 C 121.28125 164.574219 120.796875 165.476562 120.222656 166.335938 C 119.648438 167.191406 119 167.988281 118.269531 168.714844 C 117.539062 169.445312 116.746094 170.097656 115.890625 170.667969 C 115.03125 171.242188 114.125 171.726562 113.171875 172.121094 C 112.21875 172.515625 111.238281 172.8125 110.226562 173.011719 C 109.214844 173.214844 108.195312 173.3125 107.160156 173.3125 L 38.28125 173.3125 L 38.28125 226.480469 L 49.167969 226.480469 L 49.167969 184.191406 L 107.160156 184.191406 C 107.679688 184.183594 108.199219 184.203125 108.714844 184.25 C 109.230469 184.292969 109.746094 184.363281 110.253906 184.460938 C 110.761719 184.554688 111.265625 184.675781 111.765625 184.820312 C 112.261719 184.964844 112.75 185.136719 113.234375 185.332031 C 113.714844 185.523438 114.183594 185.742188 114.644531 185.980469 C 115.101562 186.222656 115.546875 186.484375 115.980469 186.769531 C 116.414062 187.054688 116.832031 187.359375 117.238281 187.6875 C 117.640625 188.011719 118.027344 188.359375 118.394531 188.722656 C 118.761719 189.085938 119.113281 189.46875 119.445312 189.867188 C 119.777344 190.265625 120.085938 190.679688 120.375 191.109375 C 120.667969 191.539062 120.933594 191.984375 121.179688 192.441406 C 121.425781 192.894531 121.648438 193.363281 121.851562 193.839844 C 122.050781 194.320312 122.226562 194.808594 122.378906 195.304688 C 122.527344 195.800781 122.65625 196.300781 122.757812 196.808594 C 122.859375 197.316406 122.9375 197.828125 122.988281 198.347656 C 123.039062 198.863281 123.0625 199.378906 123.0625 199.898438 C 123.0625 200.417969 123.039062 200.933594 122.988281 201.449219 C 122.9375 201.964844 122.859375 202.476562 122.757812 202.984375 C 122.65625 203.496094 122.527344 203.996094 122.378906 204.492188 C 122.226562 204.988281 122.050781 205.476562 121.851562 205.953125 C 121.648438 206.433594 121.425781 206.898438 121.179688 207.355469 C 120.933594 207.8125 120.667969 208.253906 120.375 208.683594 C 120.085938 209.113281 119.777344 209.527344 119.445312 209.929688 C 119.113281 210.328125 118.761719 210.710938 118.394531 211.074219 C 118.027344 211.4375 117.640625 211.78125 117.238281 212.109375 C 116.832031 212.433594 116.414062 212.742188 115.980469 213.027344 C 115.546875 213.308594 115.101562 213.574219 114.644531 213.8125 C 114.183594 214.054688 113.714844 214.269531 113.234375 214.464844 C 112.75 214.660156 112.261719 214.828125 111.765625 214.972656 C 111.265625 215.121094 110.761719 215.242188 110.253906 215.335938 C 109.746094 215.433594 109.230469 215.503906 108.714844 215.546875 C 108.199219 215.589844 107.679688 215.609375 107.160156 215.605469 L 70.699219 215.605469 L 70.699219 205.375 L 107.179688 205.375 C 107.53125 205.367188 107.878906 205.328125 108.222656 205.253906 C 108.566406 205.175781 108.902344 205.070312 109.226562 204.929688 C 109.546875 204.789062 109.855469 204.621094 110.144531 204.421875 C 110.433594 204.222656 110.703125 203.996094 110.949219 203.742188 C 111.195312 203.492188 111.417969 203.21875 111.609375 202.925781 C 111.804688 202.628906 111.964844 202.320312 112.101562 201.992188 C 112.234375 201.667969 112.332031 201.332031 112.402344 200.984375 C 112.46875 200.640625 112.503906 200.289062 112.503906 199.9375 C 112.503906 199.585938 112.46875 199.238281 112.402344 198.890625 C 112.332031 198.546875 112.234375 198.210938 112.101562 197.882812 C 111.964844 197.558594 111.804688 197.246094 111.609375 196.953125 C 111.417969 196.660156 111.195312 196.386719 110.949219 196.132812 C 110.703125 195.882812 110.433594 195.65625 110.144531 195.457031 C 109.855469 195.257812 109.546875 195.085938 109.226562 194.949219 C 108.902344 194.808594 108.566406 194.699219 108.222656 194.625 C 107.878906 194.550781 107.53125 194.507812 107.179688 194.5 L 59.714844 194.5 L 59.824219 226.480469 L 107.160156 226.480469 C 110.753906 226.507812 114.199219 225.820312 117.5 224.414062 C 119.085938 223.738281 120.589844 222.921875 122.011719 221.957031 C 123.4375 220.992188 124.757812 219.898438 125.972656 218.679688 C 127.183594 217.460938 128.269531 216.136719 129.226562 214.707031 C 130.183594 213.277344 130.996094 211.769531 131.660156 210.183594 C 133.0625 206.898438 133.753906 203.46875 133.738281 199.894531 C 133.730469 196.636719 133.15625 193.480469 132.015625 190.425781 C 130.890625 187.359375 129.238281 184.613281 127.058594 182.179688 Z M 127.058594 182.179688 " fill-opacity="1" fill-rule="nonzero"/></g><g fill="#ffffff" fill-opacity="1"><g transform="translate(132.853693, 189.87516)"><g><path d="M 9.65625 -21.921875 L 9.65625 -17.828125 C 11.226562 -20.710938 13.328125 -22.15625 15.953125 -22.15625 L 15.953125 -15.3125 L 14.296875 -15.3125 C 12.753906 -15.3125 11.59375 -14.945312 10.8125 -14.21875 C 10.039062 -13.488281 9.65625 -12.207031 9.65625 -10.375 L 9.65625 0 L 2.953125 0 L 2.953125 -21.921875 Z M 9.65625 -21.921875 "/></g></g></g><g fill="#ffffff" fill-opacity="1"><g transform="translate(147.775447, 189.87516)"><g><path d="M 16.296875 -6.9375 C 17.265625 -7.882812 17.75 -9.222656 17.75 -10.953125 C 17.75 -12.679688 17.265625 -14.007812 16.296875 -14.9375 C 15.328125 -15.875 14.210938 -16.34375 12.953125 -16.34375 C 11.703125 -16.34375 10.59375 -15.867188 9.625 -14.921875 C 8.65625 -13.984375 8.171875 -12.648438 8.171875 -10.921875 C 8.171875 -9.191406 8.65625 -7.859375 9.625 -6.921875 C 10.59375 -5.992188 11.703125 -5.53125 12.953125 -5.53125 C 14.210938 -5.53125 15.328125 -6 16.296875 -6.9375 Z M 4.234375 -2.859375 C 2.296875 -4.960938 1.328125 -7.648438 1.328125 -10.921875 C 1.328125 -14.191406 2.296875 -16.878906 4.234375 -18.984375 C 6.179688 -21.097656 8.546875 -22.15625 11.328125 -22.15625 C 14.117188 -22.15625 16.257812 -21.117188 17.75 -19.046875 L 17.75 -21.921875 L 24.46875 -21.921875 L 24.46875 0 L 17.75 0 L 17.75 -3.1875 C 16.125 -0.875 13.953125 0.28125 11.234375 0.28125 C 8.515625 0.28125 6.179688 -0.765625 4.234375 -2.859375 Z M 4.234375 -2.859375 "/></g></g></g><g fill="#ffffff" fill-opacity="1"><g transform="translate(173.45704, 189.87516)"><g><path d="M 9.65625 -21.921875 L 9.65625 -18.703125 C 11.050781 -21.003906 13.265625 -22.15625 16.296875 -22.15625 C 18.816406 -22.15625 20.851562 -21.316406 22.40625 -19.640625 C 23.96875 -17.960938 24.75 -15.6875 24.75 -12.8125 L 24.75 0 L 18.0625 0 L 18.0625 -11.90625 C 18.0625 -13.320312 17.6875 -14.414062 16.9375 -15.1875 C 16.195312 -15.957031 15.171875 -16.34375 13.859375 -16.34375 C 12.554688 -16.34375 11.53125 -15.957031 10.78125 -15.1875 C 10.03125 -14.414062 9.65625 -13.320312 9.65625 -11.90625 L 9.65625 0 L 2.953125 0 L 2.953125 -21.921875 Z M 9.65625 -21.921875 "/></g></g></g><g fill="#ffffff" fill-opacity="1"><g transform="translate(199.217174, 189.87516)"><g><path d="M 16.296875 -6.9375 C 17.265625 -7.882812 17.75 -9.222656 17.75 -10.953125 C 17.75 -12.679688 17.265625 -14.007812 16.296875 -14.9375 C 15.328125 -15.875 14.210938 -16.34375 12.953125 -16.34375 C 11.703125 -16.34375 10.59375 -15.867188 9.625 -14.921875 C 8.65625 -13.984375 8.171875 -12.648438 8.171875 -10.921875 C 8.171875 -9.191406 8.65625 -7.859375 9.625 -6.921875 C 10.59375 -5.992188 11.703125 -5.53125 12.953125 -5.53125 C 14.210938 -5.53125 15.328125 -6 16.296875 -6.9375 Z M 4.234375 -2.859375 C 2.296875 -4.960938 1.328125 -7.648438 1.328125 -10.921875 C 1.328125 -14.191406 2.296875 -16.878906 4.234375 -18.984375 C 6.179688 -21.097656 8.546875 -22.15625 11.328125 -22.15625 C 14.117188 -22.15625 16.257812 -21.117188 17.75 -19.046875 L 17.75 -29.0625 L 24.46875 -29.0625 L 24.46875 0 L 17.75 0 L 17.75 -3.1875 C 16.125 -0.875 13.953125 0.28125 11.234375 0.28125 C 8.515625 0.28125 6.179688 -0.765625 4.234375 -2.859375 Z M 4.234375 -2.859375 "/></g></g></g><g fill="#f1a634" fill-opacity="1"><g transform="translate(224.892749, 189.87516)"><g><path d="M 2.953125 -27.578125 L 14.921875 -27.578125 C 17.722656 -27.578125 19.957031 -26.894531 21.625 -25.53125 C 23.289062 -24.164062 24.125 -22.4375 24.125 -20.34375 C 24.125 -17.226562 22.300781 -15.125 18.65625 -14.03125 C 20.519531 -13.757812 22 -12.984375 23.09375 -11.703125 C 24.195312 -10.421875 24.75 -8.914062 24.75 -7.1875 C 24.75 -4.988281 23.941406 -3.238281 22.328125 -1.9375 C 20.722656 -0.644531 18.476562 0 15.59375 0 L 2.953125 0 Z M 9.65625 -22.46875 L 9.65625 -16.5 L 14.0625 -16.5 C 15.03125 -16.5 15.804688 -16.742188 16.390625 -17.234375 C 16.984375 -17.734375 17.28125 -18.472656 17.28125 -19.453125 C 17.28125 -20.441406 16.984375 -21.191406 16.390625 -21.703125 C 15.804688 -22.210938 15.03125 -22.46875 14.0625 -22.46875 Z M 9.65625 -5.109375 L 14.734375 -5.109375 C 15.648438 -5.109375 16.40625 -5.378906 17 -5.921875 C 17.601562 -6.472656 17.90625 -7.234375 17.90625 -8.203125 C 17.90625 -9.171875 17.617188 -9.941406 17.046875 -10.515625 C 16.472656 -11.097656 15.726562 -11.390625 14.8125 -11.390625 L 9.65625 -11.390625 Z M 9.65625 -5.109375 "/></g></g></g><g fill="#ffffff" fill-opacity="1"><g transform="translate(249.631029, 189.87516)"><g><path d="M 16.296875 -6.9375 C 17.265625 -7.882812 17.75 -9.222656 17.75 -10.953125 C 17.75 -12.679688 17.265625 -14.007812 16.296875 -14.9375 C 15.328125 -15.875 14.210938 -16.34375 12.953125 -16.34375 C 11.703125 -16.34375 10.59375 -15.867188 9.625 -14.921875 C 8.65625 -13.984375 8.171875 -12.648438 8.171875 -10.921875 C 8.171875 -9.191406 8.65625 -7.859375 9.625 -6.921875 C 10.59375 -5.992188 11.703125 -5.53125 12.953125 -5.53125 C 14.210938 -5.53125 15.328125 -6 16.296875 -6.9375 Z M 4.234375 -2.859375 C 2.296875 -4.960938 1.328125 -7.648438 1.328125 -10.921875 C 1.328125 -14.191406 2.296875 -16.878906 4.234375 -18.984375 C 6.179688 -21.097656 8.546875 -22.15625 11.328125 -22.15625 C 14.117188 -22.15625 16.257812 -21.117188 17.75 -19.046875 L 17.75 -21.921875 L 24.46875 -21.921875 L 24.46875 0 L 17.75 0 L 17.75 -3.1875 C 16.125 -0.875 13.953125 0.28125 11.234375 0.28125 C 8.515625 0.28125 6.179688 -0.765625 4.234375 -2.859375 Z M 4.234375 -2.859375 "/></g></g></g><g fill="#ffffff" fill-opacity="1"><g transform="translate(275.312622, 189.87516)"><g><path d="M 9.65625 0 L 2.953125 0 L 2.953125 -29.0625 L 9.65625 -29.0625 L 9.65625 -12.765625 L 16.453125 -21.921875 L 25.5 -21.921875 L 16.109375 -10.71875 L 25.5 0 L 16.578125 0 L 9.65625 -8.765625 Z M 9.65625 0 "/></g></g></g><g fill="#ffffff" fill-opacity="1"><g transform="translate(299.227087, 189.87516)"><g><path d="M 17.828125 -21.921875 L 24.546875 -21.921875 L 24.546875 0 L 17.828125 0 L 17.828125 -3.21875 C 16.441406 -0.914062 14.226562 0.234375 11.1875 0.234375 C 8.675781 0.234375 6.640625 -0.601562 5.078125 -2.28125 C 3.523438 -3.957031 2.75 -6.234375 2.75 -9.109375 L 2.75 -21.921875 L 9.421875 -21.921875 L 9.421875 -10.015625 C 9.421875 -8.597656 9.796875 -7.503906 10.546875 -6.734375 C 11.296875 -5.960938 12.320312 -5.578125 13.625 -5.578125 C 14.9375 -5.578125 15.960938 -5.960938 16.703125 -6.734375 C 17.453125 -7.503906 17.828125 -8.597656 17.828125 -10.015625 Z M 17.828125 -21.921875 "/></g></g></g><g clip-path="url(#id2)"><g clip-path="url(#id3)"><g clip-path="url(#id4)"><path fill="#f1a634" d="M 162.230469 195.429688 L 161.992188 195.285156 C 161.917969 195.222656 161.835938 195.171875 161.746094 195.136719 L 155.109375 191.164062 C 154.875 191.023438 154.570312 190.976562 154.320312 191.085938 L 144.378906 195.546875 L 134.433594 200.007812 C 134.183594 200.121094 134.019531 200.382812 133.96875 200.648438 L 132.515625 208.234375 C 132.484375 208.320312 132.46875 208.421875 132.46875 208.519531 L 132.417969 208.796875 C 132.34375 209.171875 132.539062 209.546875 132.882812 209.703125 L 154.457031 219.558594 C 154.464844 219.5625 154.476562 219.566406 154.484375 219.570312 C 154.523438 219.585938 154.566406 219.601562 154.609375 219.613281 C 154.628906 219.617188 154.648438 219.617188 154.667969 219.621094 C 154.6875 219.625 154.703125 219.632812 154.722656 219.632812 C 154.734375 219.632812 154.746094 219.632812 154.757812 219.632812 C 154.804688 219.632812 154.855469 219.632812 154.902344 219.628906 C 154.921875 219.625 154.976562 219.699219 154.996094 219.695312 C 155.058594 219.683594 155.15625 219.742188 155.21875 219.714844 L 155.222656 219.714844 C 155.285156 219.6875 155.304688 219.574219 155.355469 219.535156 C 155.371094 219.523438 155.367188 219.46875 155.382812 219.457031 C 155.421875 219.425781 155.445312 219.371094 155.476562 219.332031 C 155.484375 219.324219 155.488281 219.308594 155.496094 219.296875 C 155.507812 219.28125 155.511719 219.261719 155.519531 219.246094 C 155.53125 219.230469 155.542969 219.210938 155.550781 219.191406 C 155.574219 219.152344 155.589844 219.113281 155.601562 219.070312 C 155.605469 219.0625 155.609375 219.054688 155.613281 219.042969 L 162.59375 196.378906 C 162.707031 196.015625 162.558594 195.621094 162.230469 195.429688 Z M 159.636719 195.828125 L 153.523438 198.632812 L 154.703125 192.890625 Z M 153.792969 216.535156 L 142.964844 205.207031 L 152.53125 200.914062 Z M 142.4375 203.480469 L 142.21875 203.394531 L 145.179688 197.332031 L 151.667969 199.140625 L 151.59375 199.375 Z M 152.0625 197.628906 L 147.195312 196.246094 L 152.867188 193.703125 Z M 140.824219 202.667969 L 137.355469 200.660156 L 143.027344 198.117188 Z M 135.527344 201.492188 L 140.605469 204.429688 L 134.441406 207.132812 Z M 134.84375 208.765625 L 141.335938 205.917969 L 151.199219 216.238281 Z M 155.296875 214.398438 L 154.148438 200.171875 L 160.589844 197.214844 Z M 155.296875 214.398438 " fill-opacity="1" fill-rule="nonzero"/></g></g></g></svg>