<svg xmlns="http://www.w3.org/2000/svg" xmlns:xlink="http://www.w3.org/1999/xlink" width="500" zoomAndPan="magnify" viewBox="0 0 375 374.999991" height="500" preserveAspectRatio="xMidYMid meet" version="1.0"><defs><clipPath id="id1"><path d="M 2 53 L 272 53 L 272 322.867188 L 2 322.867188 Z M 2 53 " clip-rule="nonzero"/></clipPath><clipPath id="id2"><path d="M 268 222 L 354 222 L 354 305 L 268 305 Z M 268 222 " clip-rule="nonzero"/></clipPath><clipPath id="id3"><path d="M 259.386719 254.546875 L 344.238281 216.480469 L 374.941406 284.910156 L 290.085938 322.976562 Z M 259.386719 254.546875 " clip-rule="nonzero"/></clipPath><clipPath id="id4"><path d="M 259.386719 254.546875 L 344.238281 216.480469 L 374.941406 284.910156 L 290.085938 322.976562 Z M 259.386719 254.546875 " clip-rule="nonzero"/></clipPath></defs><g clip-path="url(#id1)"><path fill="#f1a634" d="M 253.011719 197.605469 L 244.316406 187.921875 L 253.011719 178.242188 C 259.1875 171.375 263.867188 163.609375 267.0625 154.945312 C 270.285156 146.316406 271.90625 137.398438 271.921875 128.191406 C 271.941406 123.191406 271.457031 118.246094 270.464844 113.347656 C 269.476562 108.449219 268 103.699219 266.039062 99.105469 C 264.15625 94.621094 261.867188 90.363281 259.160156 86.324219 C 256.457031 82.285156 253.390625 78.542969 249.960938 75.097656 C 246.535156 71.652344 242.808594 68.570312 238.78125 65.84375 C 234.757812 63.121094 230.507812 60.808594 226.035156 58.90625 C 221.417969 56.9375 216.648438 55.464844 211.730469 54.480469 C 206.808594 53.496094 201.839844 53.027344 196.820312 53.066406 L 2.234375 53.066406 L 2.234375 141.816406 L 196.820312 141.585938 C 197.828125 141.585938 198.828125 141.488281 199.816406 141.292969 C 200.804688 141.09375 201.765625 140.800781 202.699219 140.417969 C 203.628906 140.03125 204.515625 139.554688 205.351562 138.996094 C 206.191406 138.433594 206.96875 137.796875 207.679688 137.085938 C 208.394531 136.371094 209.03125 135.597656 209.589844 134.757812 C 210.148438 133.917969 210.621094 133.035156 211.007812 132.101562 C 211.394531 131.171875 211.6875 130.210938 211.882812 129.21875 C 212.078125 128.230469 212.175781 127.234375 212.175781 126.222656 C 212.175781 125.214844 212.078125 124.21875 211.882812 123.226562 C 211.6875 122.238281 211.394531 121.277344 211.007812 120.347656 C 210.621094 119.414062 210.148438 118.53125 209.589844 117.691406 C 209.027344 116.855469 208.394531 116.078125 207.679688 115.367188 C 206.964844 114.652344 206.191406 114.015625 205.351562 113.457031 C 204.515625 112.894531 203.628906 112.421875 202.699219 112.035156 C 201.765625 111.652344 200.804688 111.359375 199.816406 111.164062 C 198.828125 110.964844 197.828125 110.867188 196.820312 110.867188 L 32.96875 110.867188 L 32.96875 83.816406 L 196.808594 83.816406 C 198.261719 83.816406 199.710938 83.886719 201.15625 84.027344 C 202.601562 84.171875 204.039062 84.382812 205.464844 84.667969 C 206.890625 84.953125 208.296875 85.304688 209.6875 85.726562 C 211.078125 86.148438 212.445312 86.636719 213.789062 87.191406 C 215.132812 87.75 216.445312 88.371094 217.726562 89.054688 C 219.007812 89.738281 220.253906 90.488281 221.460938 91.292969 C 222.667969 92.101562 223.835938 92.964844 224.957031 93.886719 C 226.082031 94.808594 227.15625 95.785156 228.183594 96.8125 C 229.210938 97.839844 230.1875 98.914062 231.109375 100.039062 C 232.03125 101.164062 232.894531 102.328125 233.703125 103.535156 C 234.511719 104.746094 235.257812 105.992188 235.941406 107.273438 C 236.628906 108.554688 237.25 109.867188 237.804688 111.207031 C 238.359375 112.550781 238.851562 113.917969 239.273438 115.308594 C 239.695312 116.699219 240.046875 118.109375 240.328125 119.535156 C 240.613281 120.957031 240.828125 122.394531 240.96875 123.839844 C 241.109375 125.289062 241.183594 126.738281 241.183594 128.191406 C 241.183594 129.644531 241.113281 131.09375 240.96875 132.539062 C 240.828125 133.984375 240.613281 135.421875 240.332031 136.847656 C 240.046875 138.273438 239.695312 139.679688 239.273438 141.070312 C 238.851562 142.460938 238.363281 143.828125 237.804688 145.171875 C 237.25 146.515625 236.628906 147.828125 235.945312 149.109375 C 235.257812 150.390625 234.511719 151.636719 233.707031 152.84375 C 232.898438 154.050781 232.035156 155.21875 231.109375 156.339844 C 230.1875 157.464844 229.214844 158.539062 228.1875 159.566406 C 227.160156 160.59375 226.082031 161.570312 224.960938 162.492188 C 223.835938 163.414062 222.671875 164.277344 221.460938 165.085938 C 220.253906 165.894531 219.007812 166.640625 217.726562 167.324219 C 216.445312 168.007812 215.132812 168.628906 213.789062 169.183594 C 212.445312 169.742188 211.078125 170.230469 209.6875 170.652344 C 208.296875 171.074219 206.890625 171.425781 205.464844 171.707031 C 204.039062 171.992188 202.601562 172.203125 201.15625 172.347656 C 199.710938 172.488281 198.261719 172.558594 196.808594 172.558594 L 2.222656 172.558594 L 2.222656 322.75 L 32.96875 322.75 L 32.96875 203.285156 L 196.808594 203.285156 C 198.273438 203.265625 199.734375 203.320312 201.191406 203.449219 C 202.652344 203.574219 204.101562 203.773438 205.542969 204.042969 C 206.980469 204.3125 208.402344 204.65625 209.808594 205.066406 C 211.214844 205.476562 212.597656 205.957031 213.957031 206.503906 C 215.316406 207.050781 216.644531 207.664062 217.941406 208.34375 C 219.238281 209.023438 220.5 209.765625 221.722656 210.570312 C 222.949219 211.375 224.128906 212.238281 225.269531 213.160156 C 226.40625 214.082031 227.496094 215.054688 228.539062 216.085938 C 229.582031 217.117188 230.570312 218.195312 231.503906 219.320312 C 232.441406 220.449219 233.320312 221.617188 234.136719 222.832031 C 234.957031 224.046875 235.714844 225.296875 236.410156 226.589844 C 237.105469 227.878906 237.734375 229.199219 238.300781 230.550781 C 238.867188 231.902344 239.363281 233.277344 239.789062 234.675781 C 240.21875 236.078125 240.578125 237.496094 240.863281 238.933594 C 241.152344 240.367188 241.371094 241.816406 241.515625 243.273438 C 241.660156 244.730469 241.730469 246.191406 241.730469 247.65625 C 241.730469 249.121094 241.660156 250.582031 241.515625 252.039062 C 241.371094 253.5 241.152344 254.945312 240.863281 256.382812 C 240.578125 257.816406 240.21875 259.238281 239.789062 260.636719 C 239.363281 262.039062 238.867188 263.414062 238.300781 264.765625 C 237.734375 266.117188 237.105469 267.4375 236.410156 268.726562 C 235.714844 270.015625 234.957031 271.269531 234.136719 272.480469 C 233.320312 273.695312 232.441406 274.867188 231.503906 275.992188 C 230.570312 277.121094 229.582031 278.199219 228.539062 279.230469 C 227.496094 280.257812 226.40625 281.234375 225.269531 282.15625 C 224.128906 283.078125 222.949219 283.9375 221.722656 284.742188 C 220.5 285.546875 219.238281 286.289062 217.941406 286.96875 C 216.644531 287.648438 215.316406 288.261719 213.957031 288.808594 C 212.597656 289.359375 211.214844 289.839844 209.808594 290.25 C 208.402344 290.660156 206.980469 291 205.542969 291.269531 C 204.101562 291.542969 202.652344 291.738281 201.191406 291.867188 C 199.734375 291.992188 198.273438 292.046875 196.808594 292.027344 L 93.796875 292.027344 L 93.796875 263.132812 L 196.855469 263.132812 C 197.851562 263.113281 198.832031 262.996094 199.804688 262.785156 C 200.777344 262.570312 201.722656 262.265625 202.632812 261.871094 C 203.546875 261.476562 204.414062 260.996094 205.234375 260.433594 C 206.054688 259.871094 206.8125 259.234375 207.507812 258.519531 C 208.207031 257.808594 208.828125 257.039062 209.371094 256.207031 C 209.917969 255.375 210.378906 254.5 210.757812 253.578125 C 211.132812 252.65625 211.417969 251.707031 211.609375 250.730469 C 211.800781 249.753906 211.894531 248.769531 211.894531 247.773438 C 211.894531 246.777344 211.800781 245.792969 211.609375 244.816406 C 211.417969 243.839844 211.132812 242.890625 210.757812 241.96875 C 210.378906 241.046875 209.917969 240.167969 209.371094 239.339844 C 208.828125 238.507812 208.207031 237.734375 207.507812 237.023438 C 206.8125 236.3125 206.054688 235.675781 205.234375 235.113281 C 204.414062 234.546875 203.546875 234.066406 202.632812 233.671875 C 201.722656 233.277344 200.777344 232.972656 199.804688 232.761719 C 198.832031 232.550781 197.851562 232.433594 196.855469 232.414062 L 62.765625 232.414062 L 63.078125 322.75 L 196.808594 322.75 C 201.824219 322.792969 206.792969 322.320312 211.710938 321.335938 C 216.632812 320.355469 221.398438 318.878906 226.015625 316.910156 C 230.488281 315.011719 234.738281 312.695312 238.761719 309.972656 C 242.789062 307.25 246.515625 304.164062 249.941406 300.71875 C 253.371094 297.273438 256.4375 293.53125 259.140625 289.492188 C 261.847656 285.457031 264.136719 281.195312 266.015625 276.714844 C 267.972656 272.121094 269.445312 267.375 270.433594 262.484375 C 271.421875 257.589844 271.90625 252.644531 271.882812 247.652344 C 271.863281 238.445312 270.242188 229.527344 267.019531 220.898438 C 263.835938 212.242188 259.167969 204.476562 253.011719 197.605469 Z M 253.011719 197.605469 " fill-opacity="1" fill-rule="nonzero"/></g><g clip-path="url(#id2)"><g clip-path="url(#id3)"><g clip-path="url(#id4)"><path fill="#f1a634" d="M 352.152344 235.25 L 351.476562 234.839844 C 351.269531 234.65625 351.03125 234.515625 350.777344 234.417969 L 331.976562 222.988281 C 331.316406 222.585938 330.457031 222.445312 329.75 222.761719 L 301.734375 235.332031 L 273.710938 247.902344 C 273.007812 248.21875 272.542969 248.953125 272.398438 249.714844 L 268.417969 271.316406 C 268.324219 271.566406 268.285156 271.859375 268.28125 272.128906 L 268.140625 272.925781 C 267.941406 273.988281 268.492188 275.058594 269.472656 275.515625 L 330.550781 303.925781 C 330.578125 303.9375 330.601562 303.941406 330.625 303.953125 C 330.742188 304 330.859375 304.042969 330.984375 304.074219 C 331.035156 304.085938 331.089844 304.097656 331.144531 304.105469 C 331.195312 304.117188 331.246094 304.128906 331.300781 304.136719 C 331.335938 304.140625 331.367188 304.132812 331.398438 304.132812 C 331.535156 304.140625 331.671875 304.136719 331.808594 304.121094 C 331.867188 304.117188 332.019531 304.332031 332.074219 304.324219 C 332.257812 304.289062 332.53125 304.457031 332.703125 304.382812 C 332.703125 304.378906 332.707031 304.378906 332.710938 304.378906 L 332.710938 304.375 C 332.714844 304.375 332.714844 304.375 332.71875 304.375 C 332.886719 304.296875 332.945312 303.980469 333.089844 303.867188 C 333.136719 303.832031 333.125 303.683594 333.167969 303.644531 C 333.269531 303.550781 333.339844 303.398438 333.425781 303.289062 C 333.445312 303.261719 333.460938 303.21875 333.480469 303.191406 C 333.507812 303.152344 333.523438 303.089844 333.550781 303.046875 C 333.582031 302.996094 333.609375 302.941406 333.636719 302.890625 C 333.695312 302.78125 333.742188 302.664062 333.78125 302.546875 C 333.789062 302.519531 333.804688 302.496094 333.8125 302.46875 L 353.199219 237.960938 C 353.507812 236.925781 353.078125 235.808594 352.152344 235.25 Z M 344.835938 236.351562 L 327.601562 244.261719 L 330.855469 227.902344 Z M 328.632812 295.289062 L 297.878906 262.839844 L 324.84375 250.742188 Z M 296.371094 257.914062 L 295.75 257.664062 L 304.019531 240.429688 L 322.375 245.671875 L 322.164062 246.339844 Z M 323.460938 241.371094 L 309.695312 237.363281 L 325.683594 230.191406 Z M 291.796875 255.578125 L 281.964844 249.804688 L 297.957031 242.628906 Z M 276.816406 252.148438 L 291.199219 260.59375 L 273.832031 268.207031 Z M 274.992188 272.871094 L 293.285156 264.851562 L 321.300781 294.410156 Z M 332.847656 289.226562 L 329.398438 248.652344 L 347.550781 240.320312 Z M 332.847656 289.226562 " fill-opacity="1" fill-rule="nonzero"/></g></g></g></svg>