<svg xmlns="http://www.w3.org/2000/svg" xmlns:xlink="http://www.w3.org/1999/xlink" width="500" zoomAndPan="magnify" viewBox="0 0 375 374.999991" height="500" preserveAspectRatio="xMidYMid meet" version="1.0"><defs><g/><clipPath id="id1"><path d="M 66 198.765625 L 178 198.765625 L 178 229 L 66 229 Z M 66 198.765625 " clip-rule="nonzero"/></clipPath></defs><g clip-path="url(#id1)"><path fill="#f1a634" d="M 67.5 199.679688 C 67.441406 199.761719 67.433594 199.847656 67.472656 199.9375 C 67.246094 200.195312 66.730469 199.996094 66.644531 200.464844 C 65.882812 201.214844 66.171875 201.976562 66.621094 202.734375 C 67.886719 204.847656 69.476562 206.710938 71.179688 208.484375 C 77.285156 214.820312 84.445312 219.601562 92.53125 223.171875 C 106.652344 229.410156 121.222656 230.273438 136.164062 227.226562 C 143.089844 225.816406 149.636719 223.230469 156.066406 220.34375 C 159.84375 218.648438 163.503906 216.730469 167.214844 214.902344 C 167.316406 214.78125 167.417969 214.65625 167.523438 214.53125 C 167.707031 214.523438 167.910156 214.460938 168.058594 214.527344 C 168.058594 214.527344 168.058594 214.527344 168.0625 214.53125 C 168.179688 214.585938 168.101562 214.75 167.96875 214.816406 C 167.246094 216.261719 166.242188 217.507812 165.171875 218.703125 C 164.441406 219.519531 163.789062 220.363281 163.40625 221.398438 C 161.816406 223.144531 161.761719 225.015625 163.179688 226.640625 C 167.597656 224.953125 170.292969 221.480469 172.742188 217.726562 C 173.652344 216.332031 174.65625 215.003906 175.640625 213.65625 C 177.996094 210.4375 177.472656 210.769531 176.167969 207.800781 C 175.878906 207.136719 175.4375 206.550781 174.9375 206.015625 C 174.753906 205.816406 174.566406 205.652344 174.277344 205.652344 C 173.902344 204.914062 173.203125 204.902344 172.519531 204.929688 C 170.492188 205.003906 168.46875 205.101562 166.4375 205.191406 C 166.015625 204.960938 165.574219 205.03125 165.132812 205.121094 C 164.714844 204.875 164.269531 204.953125 163.828125 205.011719 C 163.5625 204.789062 163.226562 204.871094 162.925781 204.828125 C 158.804688 204.257812 154.8125 203.230469 151.003906 201.535156 C 150.714844 201.40625 150.421875 201.304688 150.128906 201.1875 C 149.785156 201.046875 149.390625 200.886719 149.117188 201.210938 C 148.910156 201.453125 148.96875 201.894531 149.152344 202.097656 C 149.957031 202.996094 150.078125 204.238281 150.785156 205.175781 C 151.09375 205.59375 151.554688 205.847656 152.023438 206.101562 C 155.644531 208.0625 159.511719 209.332031 163.523438 210.21875 C 163.882812 210.296875 164.261719 210.320312 164.589844 210.46875 C 164.972656 210.644531 164.863281 210.964844 164.671875 211.25 C 164.257812 211.199219 163.960938 211.363281 163.769531 211.722656 C 163.382812 211.753906 163.007812 211.8125 162.8125 212.210938 C 162.714844 212.164062 162.652344 212.195312 162.625 212.292969 C 162.253906 212.308594 161.910156 212.386719 161.710938 212.742188 C 161.460938 212.808594 161.199219 212.84375 160.964844 212.949219 C 158.40625 214.113281 155.863281 215.320312 153.289062 216.457031 C 150.953125 217.488281 148.589844 218.445312 146.234375 219.433594 C 145.582031 219.617188 144.921875 219.777344 144.28125 219.988281 C 138.027344 222 131.621094 223.234375 125.042969 223.515625 C 122.695312 223.613281 120.347656 223.644531 117.996094 223.699219 C 117.550781 223.453125 117.09375 223.550781 116.628906 223.644531 C 116.210938 223.394531 115.773438 223.480469 115.332031 223.566406 C 114.949219 223.300781 114.53125 223.410156 114.117188 223.453125 C 113.882812 223.253906 113.621094 223.265625 113.347656 223.363281 C 113.257812 223.296875 113.164062 223.292969 113.070312 223.355469 C 112.804688 223.140625 112.472656 223.214844 112.175781 223.164062 C 110.691406 222.914062 109.171875 222.925781 107.71875 222.492188 C 107.589844 222.609375 107.160156 222.671875 107.683594 222.890625 C 108.035156 223.039062 108.054688 223.144531 107.960938 223.230469 C 107.875 223.304688 107.707031 223.367188 107.582031 223.429688 C 102.921875 222.488281 98.4375 221 94.046875 219.222656 C 93.65625 219.019531 93.261719 218.816406 92.871094 218.613281 C 90.527344 217.40625 88.183594 216.195312 85.84375 214.988281 C 85.796875 214.890625 85.730469 214.824219 85.648438 214.789062 C 85.589844 214.761719 85.527344 214.75 85.457031 214.75 C 85.382812 214.589844 85.25 214.515625 85.078125 214.519531 C 85.007812 214.355469 84.875 214.28125 84.699219 214.289062 C 84.632812 214.117188 84.503906 214.042969 84.320312 214.050781 C 84.253906 213.882812 84.128906 213.800781 83.945312 213.8125 C 83.882812 213.640625 83.757812 213.5625 83.574219 213.574219 L 83.570312 213.570312 C 83.511719 213.402344 83.386719 213.316406 83.207031 213.332031 L 83.199219 213.324219 C 83.085938 213.238281 82.964844 213.15625 82.839844 213.082031 L 82.828125 213.074219 C 82.769531 212.90625 82.652344 212.824219 82.46875 212.832031 L 82.457031 212.824219 C 82.398438 212.652344 82.28125 212.570312 82.097656 212.578125 L 82.085938 212.570312 C 82.085938 212.570312 82.082031 212.566406 82.082031 212.566406 C 82.082031 212.566406 82.085938 212.570312 82.085938 212.570312 C 82.03125 212.398438 81.910156 212.316406 81.726562 212.324219 L 81.71875 212.320312 C 81.664062 212.144531 81.546875 212.0625 81.363281 212.070312 L 81.359375 212.066406 C 81.300781 211.894531 81.179688 211.808594 80.996094 211.8125 C 79.929688 210.957031 78.867188 210.101562 77.800781 209.246094 C 77.105469 208.976562 76.625 208.417969 76.089844 207.941406 C 76.109375 207.859375 76.148438 207.792969 76.191406 207.734375 C 76.265625 207.644531 76.355469 207.582031 76.480469 207.546875 C 76.113281 207.144531 75.777344 206.714844 75.246094 206.507812 C 75.082031 206.457031 74.925781 206.386719 74.804688 206.253906 C 74.953125 206.335938 75.097656 206.421875 75.246094 206.507812 C 75.15625 206.351562 75.050781 206.222656 74.855469 206.25 C 74.804688 205.980469 74.636719 205.820312 74.386719 205.722656 C 74.355469 205.546875 74.265625 205.441406 74.078125 205.433594 C 74.003906 205.265625 73.902344 205.140625 73.707031 205.117188 C 73.679688 205.03125 73.636719 204.964844 73.542969 204.929688 C 73.257812 204.476562 72.890625 204.101562 72.433594 203.816406 C 72.210938 203.507812 72 203.191406 71.636719 203.023438 C 71.570312 202.773438 71.367188 202.640625 71.179688 202.496094 C 70.3125 201.273438 69.226562 200.21875 68.5625 198.769531 C 68.199219 199.199219 67.59375 199.125 67.5 199.679688 Z M 162.679688 212.597656 C 162.675781 212.597656 162.675781 212.597656 162.671875 212.597656 C 162.671875 212.605469 162.675781 212.605469 162.675781 212.605469 C 162.671875 212.605469 162.664062 212.597656 162.664062 212.597656 C 162.664062 212.597656 162.671875 212.597656 162.671875 212.597656 C 162.671875 212.59375 162.671875 212.589844 162.664062 212.585938 C 162.675781 212.589844 162.675781 212.59375 162.679688 212.597656 Z M 81.296875 213.074219 C 81.320312 213.097656 81.34375 213.125 81.371094 213.148438 C 81.363281 213.144531 81.351562 213.140625 81.34375 213.136719 C 81.320312 213.121094 81.296875 213.101562 81.269531 213.082031 C 81.273438 213.082031 81.28125 213.078125 81.296875 213.074219 Z M 85.816406 214.988281 C 85.816406 214.992188 85.8125 214.992188 85.8125 215 C 85.804688 215.007812 85.800781 215.019531 85.792969 215.027344 L 85.765625 215.054688 L 85.8125 214.992188 C 85.8125 214.988281 85.808594 214.988281 85.808594 214.984375 C 85.808594 214.988281 85.8125 214.988281 85.816406 214.988281 Z M 81.140625 213.132812 C 81.183594 213.117188 81.222656 213.097656 81.261719 213.085938 C 81.285156 213.101562 81.3125 213.121094 81.335938 213.136719 C 81.277344 213.105469 81.210938 213.101562 81.140625 213.132812 Z M 81.5 213.257812 C 81.527344 213.277344 81.558594 213.296875 81.582031 213.316406 C 81.582031 213.320312 81.585938 213.320312 81.585938 213.324219 C 81.558594 213.300781 81.527344 213.277344 81.5 213.257812 Z M 68.296875 202.394531 C 68.292969 202.394531 68.289062 202.390625 68.285156 202.390625 C 68.285156 202.390625 68.28125 202.386719 68.28125 202.386719 C 68.28125 202.382812 68.277344 202.378906 68.277344 202.375 C 68.285156 202.378906 68.289062 202.386719 68.296875 202.394531 Z M 68.683594 202.933594 C 68.683594 202.941406 68.683594 202.953125 68.691406 202.957031 C 68.691406 202.945312 68.683594 202.9375 68.683594 202.933594 Z M 74.535156 206.226562 C 74.507812 206.238281 74.476562 206.253906 74.449219 206.277344 C 74.445312 206.257812 74.441406 206.238281 74.433594 206.21875 C 74.46875 206.222656 74.503906 206.222656 74.535156 206.226562 Z M 73.789062 205.3125 C 73.742188 205.28125 73.710938 205.230469 73.691406 205.167969 C 73.691406 205.167969 73.691406 205.167969 73.695312 205.167969 C 73.71875 205.226562 73.75 205.277344 73.789062 205.3125 Z M 73.789062 205.3125 " fill-opacity="1" fill-rule="nonzero"/></g><path fill="#f1a634" d="M 82.816406 213.074219 C 82.9375 213.15625 83.058594 213.234375 83.171875 213.316406 C 83.113281 213.144531 82.996094 213.066406 82.816406 213.074219 Z M 82.816406 213.074219 " fill-opacity="1" fill-rule="nonzero"/><g fill="#000000" fill-opacity="1"><g transform="translate(62.935591, 192.969815)"><g><path d="M 27.515625 -20.0625 C 28.273438 -18.144531 28.65625 -15.953125 28.65625 -13.484375 C 28.65625 -11.347656 28.394531 -9.425781 27.875 -7.71875 C 27.125 -5.207031 25.832031 -3.222656 24 -1.765625 C 22.164062 -0.316406 20.097656 0.40625 17.796875 0.40625 C 15.253906 0.40625 13.316406 -0.445312 11.984375 -2.15625 C 11.878906 -2.332031 11.773438 -2.398438 11.671875 -2.359375 C 11.566406 -2.328125 11.515625 -2.226562 11.515625 -2.0625 L 11.515625 -0.984375 C 11.515625 -0.328125 11.191406 0 10.546875 0 L 2.828125 0 C 2.179688 0 1.859375 -0.328125 1.859375 -0.984375 L 1.859375 -35.03125 C 1.859375 -35.675781 2.179688 -36 2.828125 -36 L 10.546875 -36 C 11.191406 -36 11.515625 -35.675781 11.515625 -35.03125 L 11.515625 -25.203125 C 11.515625 -25.035156 11.554688 -24.925781 11.640625 -24.875 C 11.734375 -24.820312 11.847656 -24.863281 11.984375 -25 C 13.148438 -26.4375 14.953125 -27.15625 17.390625 -27.15625 C 19.816406 -27.15625 21.90625 -26.492188 23.65625 -25.171875 C 25.40625 -23.859375 26.691406 -22.15625 27.515625 -20.0625 Z M 17.75 -9.5625 C 18.257812 -10.5625 18.515625 -11.816406 18.515625 -13.328125 C 18.515625 -14.929688 18.257812 -16.21875 17.75 -17.1875 C 17.164062 -18.3125 16.253906 -18.875 15.015625 -18.875 C 13.847656 -18.875 12.957031 -18.34375 12.34375 -17.28125 C 11.789062 -16.289062 11.515625 -14.972656 11.515625 -13.328125 C 11.515625 -11.816406 11.773438 -10.582031 12.296875 -9.625 C 12.910156 -8.457031 13.816406 -7.875 15.015625 -7.875 C 16.210938 -7.875 17.125 -8.4375 17.75 -9.5625 Z M 17.75 -9.5625 "/></g></g></g><g fill="#000000" fill-opacity="1"><g transform="translate(89.526266, 192.969815)"><g><path d="M 16.71875 -27.109375 C 17.78125 -27.109375 18.65625 -26.921875 19.34375 -26.546875 C 19.789062 -26.304688 19.960938 -25.894531 19.859375 -25.3125 L 18.625 -17.75 C 18.519531 -17.164062 18.140625 -16.941406 17.484375 -17.078125 C 17.109375 -17.179688 16.644531 -17.234375 16.09375 -17.234375 C 15.613281 -17.234375 15.117188 -17.179688 14.609375 -17.078125 C 13.710938 -16.898438 12.945312 -16.53125 12.3125 -15.96875 C 11.6875 -15.40625 11.375 -14.644531 11.375 -13.6875 L 11.375 -0.984375 C 11.375 -0.328125 11.046875 0 10.390625 0 L 2.671875 0 C 2.023438 0 1.703125 -0.328125 1.703125 -0.984375 L 1.703125 -25.765625 C 1.703125 -26.421875 2.023438 -26.75 2.671875 -26.75 L 10.390625 -26.75 C 11.046875 -26.75 11.375 -26.421875 11.375 -25.765625 L 11.375 -25.046875 C 11.375 -24.878906 11.414062 -24.757812 11.5 -24.6875 C 11.582031 -24.625 11.675781 -24.660156 11.78125 -24.796875 C 13.050781 -26.335938 14.695312 -27.109375 16.71875 -27.109375 Z M 16.71875 -27.109375 "/></g></g></g><g fill="#000000" fill-opacity="1"><g transform="translate(107.321779, 192.969815)"><g><path d="M 13.328125 -27.15625 C 15.648438 -27.15625 17.789062 -26.757812 19.75 -25.96875 C 21.707031 -25.1875 23.25 -24.109375 24.375 -22.734375 C 25.507812 -21.359375 26.078125 -19.867188 26.078125 -18.265625 L 26.078125 -0.984375 C 26.078125 -0.328125 25.75 0 25.09375 0 L 17.390625 0 C 16.734375 0 16.40625 -0.328125 16.40625 -0.984375 L 16.40625 -1.90625 C 16.40625 -2.070312 16.363281 -2.171875 16.28125 -2.203125 C 16.195312 -2.242188 16.085938 -2.195312 15.953125 -2.0625 C 15.367188 -1.195312 14.5625 -0.566406 13.53125 -0.171875 C 12.5 0.210938 11.210938 0.40625 9.671875 0.40625 C 6.859375 0.40625 4.644531 -0.234375 3.03125 -1.515625 C 1.425781 -2.804688 0.625 -4.6875 0.625 -7.15625 C 0.625 -9.757812 1.539062 -11.765625 3.375 -13.171875 C 5.207031 -14.578125 7.875 -15.28125 11.375 -15.28125 L 16 -15.28125 C 16.269531 -15.28125 16.40625 -15.414062 16.40625 -15.6875 L 16.40625 -16.453125 C 16.40625 -17.179688 16.140625 -17.765625 15.609375 -18.203125 C 15.078125 -18.648438 14.367188 -18.875 13.484375 -18.875 C 12.898438 -18.875 12.375 -18.78125 11.90625 -18.59375 C 11.445312 -18.40625 11.113281 -18.15625 10.90625 -17.84375 C 10.695312 -17.570312 10.523438 -17.382812 10.390625 -17.28125 C 10.253906 -17.175781 10.046875 -17.144531 9.765625 -17.1875 L 1.859375 -18.203125 C 1.234375 -18.273438 0.941406 -18.535156 0.984375 -18.984375 C 1.117188 -20.523438 1.742188 -21.910156 2.859375 -23.140625 C 3.972656 -24.378906 5.4375 -25.359375 7.25 -26.078125 C 9.070312 -26.796875 11.097656 -27.15625 13.328125 -27.15625 Z M 12.65625 -6.28125 C 13.75 -6.28125 14.644531 -6.570312 15.34375 -7.15625 C 16.050781 -7.738281 16.40625 -8.523438 16.40625 -9.515625 L 16.40625 -10.03125 C 16.40625 -10.300781 16.269531 -10.4375 16 -10.4375 L 13.578125 -10.4375 C 11.421875 -10.4375 10.34375 -9.734375 10.34375 -8.328125 C 10.34375 -7.710938 10.535156 -7.21875 10.921875 -6.84375 C 11.316406 -6.46875 11.894531 -6.28125 12.65625 -6.28125 Z M 12.65625 -6.28125 "/></g></g></g><g fill="#000000" fill-opacity="1"><g transform="translate(132.523744, 192.969815)"><g><path d="M 17.75 -27.15625 C 19.457031 -27.15625 21 -26.773438 22.375 -26.015625 C 23.75 -25.265625 24.835938 -24.160156 25.640625 -22.703125 C 26.441406 -21.253906 26.84375 -19.535156 26.84375 -17.546875 L 26.84375 -0.984375 C 26.84375 -0.328125 26.519531 0 25.875 0 L 18.15625 0 C 17.507812 0 17.1875 -0.328125 17.1875 -0.984375 L 17.1875 -15.4375 C 17.1875 -16.457031 16.914062 -17.285156 16.375 -17.921875 C 15.84375 -18.554688 15.148438 -18.875 14.296875 -18.875 C 13.410156 -18.875 12.703125 -18.554688 12.171875 -17.921875 C 11.640625 -17.285156 11.375 -16.457031 11.375 -15.4375 L 11.375 -0.984375 C 11.375 -0.328125 11.046875 0 10.390625 0 L 2.671875 0 C 2.023438 0 1.703125 -0.328125 1.703125 -0.984375 L 1.703125 -25.765625 C 1.703125 -26.421875 2.023438 -26.75 2.671875 -26.75 L 10.390625 -26.75 C 11.046875 -26.75 11.375 -26.421875 11.375 -25.765625 L 11.375 -24.4375 C 11.375 -24.257812 11.414062 -24.144531 11.5 -24.09375 C 11.582031 -24.039062 11.675781 -24.085938 11.78125 -24.234375 C 13.082031 -26.179688 15.070312 -27.15625 17.75 -27.15625 Z M 17.75 -27.15625 "/></g></g></g><g fill="#000000" fill-opacity="1"><g transform="translate(158.342919, 192.969815)"><g><path d="M 17.640625 -35.03125 C 17.640625 -35.675781 17.96875 -36 18.625 -36 L 26.34375 -36 C 26.988281 -36 27.3125 -35.675781 27.3125 -35.03125 L 27.3125 -0.984375 C 27.3125 -0.328125 26.988281 0 26.34375 0 L 18.625 0 C 17.96875 0 17.640625 -0.328125 17.640625 -0.984375 L 17.640625 -2.0625 C 17.640625 -2.226562 17.585938 -2.328125 17.484375 -2.359375 C 17.378906 -2.398438 17.28125 -2.332031 17.1875 -2.15625 C 15.84375 -0.445312 13.90625 0.40625 11.375 0.40625 C 9.070312 0.40625 7.003906 -0.316406 5.171875 -1.765625 C 3.335938 -3.222656 2.039062 -5.207031 1.28125 -7.71875 C 0.769531 -9.425781 0.515625 -11.347656 0.515625 -13.484375 C 0.515625 -15.953125 0.890625 -18.144531 1.640625 -20.0625 C 2.460938 -22.15625 3.75 -23.859375 5.5 -25.171875 C 7.25 -26.492188 9.34375 -27.15625 11.78125 -27.15625 C 14.21875 -27.15625 16.019531 -26.4375 17.1875 -25 C 17.320312 -24.863281 17.429688 -24.820312 17.515625 -24.875 C 17.597656 -24.925781 17.640625 -25.035156 17.640625 -25.203125 Z M 16.875 -9.625 C 17.382812 -10.613281 17.640625 -11.847656 17.640625 -13.328125 C 17.640625 -14.972656 17.363281 -16.289062 16.8125 -17.28125 C 16.195312 -18.34375 15.304688 -18.875 14.140625 -18.875 C 12.910156 -18.875 12.003906 -18.3125 11.421875 -17.1875 C 10.898438 -16.21875 10.640625 -14.929688 10.640625 -13.328125 C 10.640625 -11.816406 10.898438 -10.5625 11.421875 -9.5625 C 12.035156 -8.4375 12.941406 -7.875 14.140625 -7.875 C 15.347656 -7.875 16.257812 -8.457031 16.875 -9.625 Z M 16.875 -9.625 "/></g></g></g><g fill="#000000" fill-opacity="1"><g transform="translate(188.210779, 192.814606)"><g><path d="M 12.546875 0.25 C 10.691406 0.25 9.050781 -0.046875 7.625 -0.640625 C 6.207031 -1.242188 5.101562 -2.054688 4.3125 -3.078125 C 3.53125 -4.109375 3.140625 -5.242188 3.140625 -6.484375 L 3.140625 -7.046875 C 3.140625 -7.210938 3.195312 -7.359375 3.3125 -7.484375 C 3.4375 -7.609375 3.582031 -7.671875 3.75 -7.671875 L 5.1875 -7.671875 C 5.363281 -7.671875 5.507812 -7.617188 5.625 -7.515625 C 5.75 -7.410156 5.8125 -7.289062 5.8125 -7.15625 L 5.8125 -6.578125 C 5.8125 -5.347656 6.4375 -4.269531 7.6875 -3.34375 C 8.9375 -2.414062 10.539062 -1.953125 12.5 -1.953125 C 14.414062 -1.953125 15.984375 -2.414062 17.203125 -3.34375 C 18.421875 -4.269531 19.03125 -5.421875 19.03125 -6.796875 C 19.03125 -7.753906 18.722656 -8.539062 18.109375 -9.15625 C 17.492188 -9.769531 16.753906 -10.238281 15.890625 -10.5625 C 15.035156 -10.894531 13.769531 -11.316406 12.09375 -11.828125 C 10.164062 -12.410156 8.617188 -12.957031 7.453125 -13.46875 C 6.285156 -13.988281 5.300781 -14.71875 4.5 -15.65625 C 3.695312 -16.601562 3.296875 -17.796875 3.296875 -19.234375 C 3.296875 -21.328125 4.125 -23 5.78125 -24.25 C 7.445312 -25.5 9.632812 -26.125 12.34375 -26.125 C 14.164062 -26.125 15.769531 -25.820312 17.15625 -25.21875 C 18.539062 -24.625 19.617188 -23.8125 20.390625 -22.78125 C 21.160156 -21.757812 21.546875 -20.597656 21.546875 -19.296875 L 21.546875 -19.234375 C 21.546875 -19.066406 21.484375 -18.921875 21.359375 -18.796875 C 21.242188 -18.679688 21.101562 -18.625 20.9375 -18.625 L 19.546875 -18.625 C 19.378906 -18.625 19.234375 -18.65625 19.109375 -18.71875 C 18.984375 -18.789062 18.921875 -18.878906 18.921875 -18.984375 L 18.921875 -19.296875 C 18.921875 -20.597656 18.3125 -21.679688 17.09375 -22.546875 C 15.882812 -23.421875 14.285156 -23.859375 12.296875 -23.859375 C 10.367188 -23.859375 8.820312 -23.457031 7.65625 -22.65625 C 6.5 -21.851562 5.921875 -20.765625 5.921875 -19.390625 C 5.921875 -18.085938 6.457031 -17.109375 7.53125 -16.453125 C 8.613281 -15.804688 10.304688 -15.140625 12.609375 -14.453125 C 14.628906 -13.867188 16.226562 -13.328125 17.40625 -12.828125 C 18.59375 -12.335938 19.613281 -11.609375 20.46875 -10.640625 C 21.332031 -9.679688 21.765625 -8.445312 21.765625 -6.9375 C 21.765625 -4.78125 20.921875 -3.039062 19.234375 -1.71875 C 17.554688 -0.40625 15.328125 0.25 12.546875 0.25 Z M 12.546875 0.25 "/></g></g></g><g fill="#000000" fill-opacity="1"><g transform="translate(210.226359, 192.814606)"><g><path d="M 14.71875 -26.28125 C 17.351562 -26.28125 19.472656 -25.472656 21.078125 -23.859375 C 22.691406 -22.253906 23.5 -20.128906 23.5 -17.484375 L 23.5 -0.625 C 23.5 -0.445312 23.4375 -0.296875 23.3125 -0.171875 C 23.195312 -0.0546875 23.054688 0 22.890625 0 L 21.390625 0 C 21.222656 0 21.078125 -0.0546875 20.953125 -0.171875 C 20.835938 -0.296875 20.78125 -0.445312 20.78125 -0.625 L 20.78125 -16.96875 C 20.78125 -19 20.160156 -20.65625 18.921875 -21.9375 C 17.691406 -23.21875 16.097656 -23.859375 14.140625 -23.859375 C 12.046875 -23.859375 10.363281 -23.234375 9.09375 -21.984375 C 7.832031 -20.734375 7.203125 -19.097656 7.203125 -17.078125 L 7.203125 -0.625 C 7.203125 -0.445312 7.140625 -0.296875 7.015625 -0.171875 C 6.898438 -0.0546875 6.753906 0 6.578125 0 L 5.09375 0 C 4.914062 0 4.765625 -0.0546875 4.640625 -0.171875 C 4.523438 -0.296875 4.46875 -0.445312 4.46875 -0.625 L 4.46875 -35.390625 C 4.46875 -35.554688 4.523438 -35.695312 4.640625 -35.8125 C 4.765625 -35.9375 4.914062 -36 5.09375 -36 L 6.578125 -36 C 6.753906 -36 6.898438 -35.9375 7.015625 -35.8125 C 7.140625 -35.695312 7.203125 -35.554688 7.203125 -35.390625 L 7.203125 -22.890625 C 7.203125 -22.785156 7.226562 -22.722656 7.28125 -22.703125 C 7.332031 -22.691406 7.375 -22.71875 7.40625 -22.78125 C 8.15625 -23.914062 9.15625 -24.78125 10.40625 -25.375 C 11.664062 -25.976562 13.101562 -26.28125 14.71875 -26.28125 Z M 14.71875 -26.28125 "/></g></g></g><g fill="#000000" fill-opacity="1"><g transform="translate(235.276837, 192.814606)"><g><path d="M 13.890625 0.40625 C 11.453125 0.40625 9.382812 -0.222656 7.6875 -1.484375 C 5.988281 -2.753906 4.832031 -4.453125 4.21875 -6.578125 C 3.800781 -7.953125 3.59375 -10.097656 3.59375 -13.015625 C 3.59375 -15.753906 3.785156 -17.878906 4.171875 -19.390625 C 4.785156 -21.515625 5.945312 -23.203125 7.65625 -24.453125 C 9.375 -25.710938 11.453125 -26.34375 13.890625 -26.34375 C 16.285156 -26.34375 18.347656 -25.707031 20.078125 -24.4375 C 21.816406 -23.164062 22.976562 -21.484375 23.5625 -19.390625 C 23.9375 -18.015625 24.125 -15.890625 24.125 -13.015625 C 24.125 -10.097656 23.9375 -7.953125 23.5625 -6.578125 C 22.976562 -4.453125 21.816406 -2.753906 20.078125 -1.484375 C 18.347656 -0.222656 16.285156 0.40625 13.890625 0.40625 Z M 13.890625 -2 C 15.703125 -2 17.25 -2.492188 18.53125 -3.484375 C 19.820312 -4.484375 20.65625 -5.828125 21.03125 -7.515625 C 21.238281 -8.472656 21.34375 -10.289062 21.34375 -12.96875 C 21.34375 -15.707031 21.238281 -17.523438 21.03125 -18.421875 C 20.65625 -20.097656 19.820312 -21.429688 18.53125 -22.421875 C 17.25 -23.421875 15.6875 -23.921875 13.84375 -23.921875 C 11.988281 -23.921875 10.425781 -23.421875 9.15625 -22.421875 C 7.882812 -21.429688 7.0625 -20.097656 6.6875 -18.421875 C 6.476562 -17.523438 6.375 -15.707031 6.375 -12.96875 C 6.375 -10.21875 6.476562 -8.398438 6.6875 -7.515625 C 7.0625 -5.828125 7.882812 -4.484375 9.15625 -3.484375 C 10.425781 -2.492188 12.003906 -2 13.890625 -2 Z M 13.890625 -2 "/></g></g></g><g fill="#000000" fill-opacity="1"><g transform="translate(260.430192, 192.814606)"><g><path d="M 23.96875 -19.5 C 24.34375 -18.050781 24.53125 -15.890625 24.53125 -13.015625 C 24.53125 -11.472656 24.492188 -10.203125 24.421875 -9.203125 C 24.359375 -8.210938 24.222656 -7.320312 24.015625 -6.53125 C 23.472656 -4.40625 22.382812 -2.71875 20.75 -1.46875 C 19.125 -0.21875 17.128906 0.40625 14.765625 0.40625 C 13.253906 0.40625 11.90625 0.109375 10.71875 -0.484375 C 9.539062 -1.085938 8.570312 -1.957031 7.8125 -3.09375 C 7.78125 -3.15625 7.726562 -3.171875 7.65625 -3.140625 C 7.59375 -3.109375 7.5625 -3.054688 7.5625 -2.984375 L 7.5625 9.46875 C 7.5625 9.632812 7.5 9.773438 7.375 9.890625 C 7.257812 10.015625 7.113281 10.078125 6.9375 10.078125 L 5.453125 10.078125 C 5.273438 10.078125 5.125 10.015625 5 9.890625 C 4.882812 9.773438 4.828125 9.632812 4.828125 9.46875 L 4.828125 -25.3125 C 4.828125 -25.476562 4.882812 -25.617188 5 -25.734375 C 5.125 -25.859375 5.273438 -25.921875 5.453125 -25.921875 L 6.9375 -25.921875 C 7.113281 -25.921875 7.257812 -25.859375 7.375 -25.734375 C 7.5 -25.617188 7.5625 -25.476562 7.5625 -25.3125 L 7.5625 -22.890625 C 7.5625 -22.785156 7.585938 -22.722656 7.640625 -22.703125 C 7.691406 -22.691406 7.75 -22.71875 7.8125 -22.78125 C 8.570312 -23.914062 9.539062 -24.789062 10.71875 -25.40625 C 11.90625 -26.03125 13.253906 -26.34375 14.765625 -26.34375 C 17.097656 -26.34375 19.066406 -25.722656 20.671875 -24.484375 C 22.285156 -23.242188 23.382812 -21.582031 23.96875 -19.5 Z M 20.984375 -6.6875 C 21.296875 -7.40625 21.507812 -8.175781 21.625 -9 C 21.75 -9.820312 21.8125 -11.144531 21.8125 -12.96875 C 21.8125 -14.675781 21.757812 -15.929688 21.65625 -16.734375 C 21.550781 -17.546875 21.378906 -18.328125 21.140625 -19.078125 C 20.765625 -20.523438 19.972656 -21.691406 18.765625 -22.578125 C 17.566406 -23.472656 16.128906 -23.921875 14.453125 -23.921875 C 12.835938 -23.921875 11.488281 -23.472656 10.40625 -22.578125 C 9.332031 -21.691406 8.609375 -20.523438 8.234375 -19.078125 C 7.992188 -18.429688 7.828125 -17.703125 7.734375 -16.890625 C 7.648438 -16.085938 7.609375 -14.796875 7.609375 -13.015625 C 7.609375 -11.191406 7.660156 -9.859375 7.765625 -9.015625 C 7.867188 -8.179688 8.039062 -7.421875 8.28125 -6.734375 C 8.625 -5.328125 9.34375 -4.1875 10.4375 -3.3125 C 11.539062 -2.4375 12.878906 -2 14.453125 -2 C 16.066406 -2 17.457031 -2.4375 18.625 -3.3125 C 19.789062 -4.1875 20.578125 -5.3125 20.984375 -6.6875 Z M 20.984375 -6.6875 "/></g></g></g></svg>