<svg xmlns="http://www.w3.org/2000/svg" xmlns:xlink="http://www.w3.org/1999/xlink" width="500" zoomAndPan="magnify" viewBox="0 0 375 374.999991" height="500" preserveAspectRatio="xMidYMid meet" version="1.0"><defs><g/><clipPath id="id1"><path d="M 35 146.597656 L 118 146.597656 L 118 228.347656 L 35 228.347656 Z M 35 146.597656 " clip-rule="nonzero"/></clipPath></defs><g clip-path="url(#id1)"><path fill="#f1a634" d="M 111.65625 190.730469 L 109.019531 187.796875 L 111.65625 184.859375 C 113.527344 182.777344 114.945312 180.425781 115.914062 177.800781 C 116.890625 175.183594 117.382812 172.480469 117.386719 169.691406 C 117.402344 166.628906 116.804688 163.691406 115.605469 160.875 C 115.035156 159.515625 114.339844 158.226562 113.519531 157 C 112.699219 155.777344 111.769531 154.644531 110.730469 153.597656 C 109.691406 152.554688 108.5625 151.621094 107.34375 150.792969 C 106.125 149.96875 104.835938 149.265625 103.480469 148.691406 C 100.652344 147.484375 97.699219 146.894531 94.625 146.921875 L 35.648438 146.921875 L 35.648438 173.820312 L 94.625 173.75 C 94.929688 173.75 95.234375 173.722656 95.535156 173.660156 C 95.832031 173.601562 96.125 173.511719 96.40625 173.394531 C 96.6875 173.277344 96.957031 173.136719 97.210938 172.964844 C 97.464844 172.796875 97.699219 172.601562 97.917969 172.386719 C 98.132812 172.171875 98.324219 171.933594 98.496094 171.679688 C 98.664062 171.425781 98.808594 171.160156 98.925781 170.875 C 99.042969 170.59375 99.128906 170.300781 99.191406 170.003906 C 99.25 169.703125 99.28125 169.398438 99.28125 169.09375 C 99.28125 168.789062 99.25 168.484375 99.191406 168.1875 C 99.128906 167.886719 99.042969 167.597656 98.925781 167.3125 C 98.808594 167.03125 98.664062 166.761719 98.496094 166.507812 C 98.324219 166.253906 98.132812 166.019531 97.917969 165.804688 C 97.699219 165.585938 97.464844 165.394531 97.210938 165.222656 C 96.957031 165.054688 96.6875 164.910156 96.40625 164.792969 C 96.125 164.675781 95.832031 164.589844 95.535156 164.53125 C 95.234375 164.46875 94.929688 164.441406 94.625 164.441406 L 44.960938 164.441406 L 44.960938 156.242188 L 94.621094 156.242188 C 95.503906 156.242188 96.378906 156.328125 97.246094 156.5 C 98.109375 156.671875 98.953125 156.925781 99.769531 157.265625 C 100.585938 157.601562 101.359375 158.015625 102.09375 158.507812 C 102.828125 158.996094 103.507812 159.554688 104.132812 160.179688 C 104.757812 160.804688 105.3125 161.484375 105.804688 162.21875 C 106.296875 162.953125 106.710938 163.726562 107.046875 164.542969 C 107.386719 165.359375 107.640625 166.199219 107.8125 167.066406 C 107.984375 167.933594 108.070312 168.808594 108.070312 169.691406 C 108.070312 170.574219 107.984375 171.449219 107.8125 172.316406 C 107.640625 173.179688 107.386719 174.023438 107.046875 174.835938 C 106.710938 175.652344 106.296875 176.429688 105.804688 177.164062 C 105.3125 177.898438 104.757812 178.578125 104.132812 179.199219 C 103.507812 179.824219 102.828125 180.382812 102.09375 180.875 C 101.359375 181.363281 100.585938 181.777344 99.769531 182.117188 C 98.953125 182.453125 98.113281 182.707031 97.246094 182.878906 C 96.378906 183.054688 95.503906 183.140625 94.621094 183.136719 L 35.644531 183.136719 L 35.644531 228.660156 L 44.960938 228.660156 L 44.960938 192.453125 L 94.621094 192.453125 C 95.511719 192.441406 96.394531 192.515625 97.269531 192.679688 C 98.144531 192.84375 98.992188 193.09375 99.820312 193.425781 C 100.644531 193.761719 101.429688 194.171875 102.171875 194.660156 C 102.917969 195.148438 103.605469 195.707031 104.238281 196.332031 C 104.871094 196.957031 105.4375 197.636719 105.9375 198.375 C 106.433594 199.113281 106.855469 199.894531 107.199219 200.714844 C 107.539062 201.535156 107.800781 202.382812 107.976562 203.257812 C 108.148438 204.128906 108.238281 205.011719 108.238281 205.902344 C 108.238281 206.789062 108.148438 207.671875 107.976562 208.546875 C 107.800781 209.417969 107.539062 210.265625 107.199219 211.085938 C 106.855469 211.90625 106.433594 212.6875 105.9375 213.425781 C 105.4375 214.164062 104.871094 214.84375 104.238281 215.46875 C 103.605469 216.09375 102.917969 216.652344 102.171875 217.140625 C 101.429688 217.628906 100.644531 218.042969 99.820312 218.375 C 98.992188 218.707031 98.144531 218.957031 97.269531 219.121094 C 96.394531 219.285156 95.511719 219.359375 94.621094 219.347656 L 63.398438 219.347656 L 63.398438 210.589844 L 94.636719 210.589844 C 94.9375 210.585938 95.234375 210.550781 95.53125 210.484375 C 95.824219 210.421875 96.109375 210.328125 96.386719 210.210938 C 96.664062 210.089844 96.925781 209.945312 97.175781 209.773438 C 97.425781 209.601562 97.652344 209.410156 97.863281 209.195312 C 98.074219 208.976562 98.265625 208.746094 98.429688 208.492188 C 98.59375 208.238281 98.734375 207.972656 98.847656 207.695312 C 98.964844 207.414062 99.050781 207.128906 99.105469 206.832031 C 99.164062 206.535156 99.195312 206.238281 99.195312 205.9375 C 99.195312 205.632812 99.164062 205.335938 99.105469 205.039062 C 99.050781 204.742188 98.964844 204.457031 98.847656 204.175781 C 98.734375 203.898438 98.59375 203.632812 98.429688 203.378906 C 98.265625 203.128906 98.074219 202.894531 97.863281 202.675781 C 97.652344 202.460938 97.425781 202.269531 97.175781 202.097656 C 96.925781 201.925781 96.664062 201.78125 96.386719 201.660156 C 96.109375 201.542969 95.824219 201.449219 95.53125 201.386719 C 95.234375 201.320312 94.9375 201.285156 94.636719 201.28125 L 53.992188 201.28125 L 54.089844 228.660156 L 94.621094 228.660156 C 97.695312 228.6875 100.644531 228.097656 103.472656 226.890625 C 104.828125 226.316406 106.117188 225.613281 107.335938 224.789062 C 108.558594 223.960938 109.6875 223.027344 110.726562 221.984375 C 111.765625 220.9375 112.695312 219.804688 113.515625 218.582031 C 114.335938 217.355469 115.027344 216.066406 115.597656 214.707031 C 116.796875 211.894531 117.390625 208.957031 117.375 205.898438 C 117.371094 203.109375 116.878906 200.40625 115.902344 197.789062 C 114.9375 195.167969 113.523438 192.8125 111.65625 190.730469 Z M 111.65625 190.730469 " fill-opacity="1" fill-rule="nonzero"/></g><g fill="#ffffff" fill-opacity="1"><g transform="translate(121.516257, 196.499987)"><g><path d="M 11.773438 -8.074219 C 12.796875 -8.640625 13.609375 -9.34375 14.175781 -10.152344 C 14.714844 -10.960938 15.011719 -12.015625 15.011719 -13.257812 C 15.011719 -13.984375 14.851562 -14.714844 14.578125 -15.417969 C 14.308594 -16.117188 13.90625 -16.765625 13.363281 -17.335938 C 12.824219 -17.875 12.175781 -18.332031 11.394531 -18.65625 C 10.609375 -18.980469 9.71875 -19.171875 8.722656 -19.171875 L 4.320312 -19.171875 C 3.941406 -19.171875 3.589844 -19.089844 3.320312 -18.953125 C 3.050781 -18.820312 2.808594 -18.65625 2.617188 -18.441406 C 2.402344 -18.226562 2.269531 -18.007812 2.160156 -17.765625 C 2.050781 -17.496094 2.023438 -17.253906 2.023438 -17.011719 L 2.023438 -2.160156 C 2.023438 -1.917969 2.050781 -1.675781 2.160156 -1.429688 C 2.269531 -1.160156 2.402344 -0.945312 2.59375 -0.730469 C 2.78125 -0.511719 3.023438 -0.324219 3.292969 -0.1875 C 3.5625 -0.0546875 3.914062 0 4.292969 0 C 4.671875 0 4.996094 -0.0546875 5.292969 -0.1875 C 5.5625 -0.324219 5.804688 -0.484375 5.992188 -0.703125 C 6.183594 -0.917969 6.316406 -1.132812 6.425781 -1.402344 C 6.507812 -1.648438 6.5625 -1.890625 6.5625 -2.132812 L 6.5625 -7.074219 C 6.5625 -7.183594 6.589844 -7.261719 6.640625 -7.289062 C 6.695312 -7.316406 6.722656 -7.34375 6.75 -7.34375 C 6.859375 -7.34375 6.992188 -7.261719 7.101562 -7.128906 L 10.882812 -1.054688 C 11.070312 -0.730469 11.339844 -0.484375 11.664062 -0.296875 C 11.988281 -0.0820312 12.394531 0 12.851562 0 C 13.230469 0 13.554688 -0.0546875 13.824219 -0.1875 C 14.09375 -0.324219 14.335938 -0.484375 14.527344 -0.703125 C 14.714844 -0.890625 14.851562 -1.105469 14.957031 -1.378906 C 15.066406 -1.648438 15.121094 -1.890625 15.121094 -2.132812 C 15.121094 -2.511719 15.011719 -2.890625 14.796875 -3.214844 C 14.6875 -3.347656 14.472656 -3.671875 14.148438 -4.210938 C 13.824219 -4.726562 13.472656 -5.292969 13.09375 -5.914062 C 12.878906 -6.210938 12.691406 -6.507812 12.527344 -6.777344 C 12.367188 -7.046875 12.203125 -7.316406 12.070312 -7.53125 C 11.90625 -7.75 11.824219 -7.9375 11.773438 -8.074219 Z M 6.535156 -12.070312 L 6.535156 -14.445312 C 6.535156 -14.578125 6.5625 -14.6875 6.667969 -14.769531 C 6.75 -14.824219 6.832031 -14.878906 6.886719 -14.878906 L 8.667969 -14.878906 C 9.207031 -14.878906 9.640625 -14.714844 9.9375 -14.445312 C 10.234375 -14.175781 10.394531 -13.769531 10.394531 -13.257812 C 10.394531 -12.71875 10.234375 -12.3125 9.9375 -12.042969 C 9.640625 -11.773438 9.207031 -11.636719 8.667969 -11.636719 L 6.886719 -11.636719 C 6.832031 -11.636719 6.75 -11.664062 6.667969 -11.746094 C 6.5625 -11.800781 6.535156 -11.90625 6.535156 -12.070312 Z M 6.535156 -12.070312 "/></g></g></g><g fill="#ffffff" fill-opacity="1"><g transform="translate(145.492295, 196.499987)"><g><path d="M 13.09375 -17.46875 C 12.933594 -17.902344 12.609375 -18.277344 12.175781 -18.628906 C 11.71875 -18.953125 11.179688 -19.144531 10.558594 -19.144531 C 9.910156 -19.144531 9.367188 -18.953125 8.910156 -18.628906 C 8.449219 -18.304688 8.128906 -17.902344 7.964844 -17.46875 L 2.160156 -2.890625 C 2.050781 -2.644531 2.023438 -2.402344 2.023438 -2.132812 C 2.023438 -1.890625 2.050781 -1.648438 2.160156 -1.402344 C 2.269531 -1.132812 2.402344 -0.917969 2.59375 -0.730469 C 2.78125 -0.511719 3.023438 -0.351562 3.320312 -0.214844 C 3.589844 -0.0820312 3.914062 -0.0273438 4.292969 -0.0273438 C 4.832031 -0.0273438 5.292969 -0.160156 5.671875 -0.460938 C 6.019531 -0.730469 6.265625 -1.054688 6.425781 -1.429688 L 7.9375 -5.238281 C 7.964844 -5.292969 8.019531 -5.347656 8.074219 -5.398438 C 8.128906 -5.425781 8.207031 -5.453125 8.261719 -5.453125 L 12.824219 -5.453125 C 12.933594 -5.453125 13.039062 -5.371094 13.148438 -5.238281 L 14.632812 -1.429688 C 14.769531 -1.054688 15.011719 -0.730469 15.390625 -0.460938 C 15.742188 -0.160156 16.199219 -0.0273438 16.765625 -0.0273438 C 17.144531 -0.0273438 17.46875 -0.0820312 17.738281 -0.214844 C 18.007812 -0.351562 18.253906 -0.511719 18.46875 -0.730469 C 18.65625 -0.917969 18.792969 -1.132812 18.898438 -1.402344 C 19.007812 -1.648438 19.0625 -1.890625 19.0625 -2.132812 C 19.0625 -2.402344 19.007812 -2.671875 18.898438 -2.890625 Z M 10.53125 -11.691406 C 10.585938 -11.527344 10.636719 -11.394531 10.691406 -11.257812 C 10.746094 -11.097656 10.828125 -10.960938 10.882812 -10.800781 C 10.933594 -10.609375 11.015625 -10.449219 11.097656 -10.285156 C 11.152344 -10.125 11.203125 -9.964844 11.257812 -9.828125 C 11.285156 -9.746094 11.3125 -9.691406 11.3125 -9.691406 L 9.691406 -9.691406 C 9.71875 -9.71875 9.746094 -9.746094 9.746094 -9.800781 C 9.855469 -10.125 9.988281 -10.421875 10.125 -10.746094 C 10.234375 -11.070312 10.367188 -11.367188 10.53125 -11.691406 Z M 10.53125 -11.691406 "/></g></g></g><g fill="#ffffff" fill-opacity="1"><g transform="translate(173.302343, 196.499987)"><g><path d="M 6.535156 -10.960938 L 15.335938 -0.78125 C 15.523438 -0.539062 15.769531 -0.351562 16.09375 -0.1875 C 16.390625 -0.0273438 16.738281 0.0273438 17.117188 0.0273438 C 17.496094 0.0273438 17.820312 -0.0273438 18.089844 -0.160156 C 18.359375 -0.296875 18.601562 -0.460938 18.792969 -0.675781 C 18.980469 -0.890625 19.117188 -1.105469 19.222656 -1.378906 C 19.332031 -1.621094 19.386719 -1.863281 19.386719 -2.105469 L 19.386719 -16.984375 C 19.386719 -17.199219 19.332031 -17.441406 19.222656 -17.710938 C 19.117188 -17.953125 18.980469 -18.171875 18.792969 -18.386719 C 18.574219 -18.574219 18.332031 -18.738281 18.0625 -18.871094 C 17.792969 -19.007812 17.46875 -19.089844 17.089844 -19.089844 C 16.714844 -19.089844 16.363281 -19.007812 16.09375 -18.871094 C 15.820312 -18.738281 15.578125 -18.574219 15.390625 -18.359375 C 15.175781 -18.144531 15.039062 -17.929688 14.929688 -17.683594 C 14.824219 -17.414062 14.796875 -17.171875 14.796875 -16.957031 L 14.796875 -8.261719 L 6.074219 -18.359375 C 5.859375 -18.574219 5.617188 -18.738281 5.320312 -18.898438 C 4.996094 -19.0625 4.671875 -19.144531 4.292969 -19.144531 C 3.914062 -19.144531 3.5625 -19.0625 3.292969 -18.925781 C 3.023438 -18.792969 2.78125 -18.628906 2.59375 -18.414062 C 2.375 -18.199219 2.242188 -17.980469 2.132812 -17.738281 C 2.023438 -17.46875 1.996094 -17.226562 1.996094 -16.984375 L 1.996094 -2.132812 C 1.996094 -1.890625 2.023438 -1.648438 2.132812 -1.402344 C 2.242188 -1.132812 2.375 -0.917969 2.566406 -0.703125 C 2.753906 -0.484375 2.996094 -0.296875 3.265625 -0.160156 C 3.535156 -0.0273438 3.886719 0.0273438 4.265625 0.0273438 C 4.644531 0.0273438 4.96875 -0.0273438 5.265625 -0.160156 C 5.535156 -0.296875 5.777344 -0.460938 5.96875 -0.675781 C 6.15625 -0.890625 6.289062 -1.105469 6.398438 -1.378906 C 6.480469 -1.621094 6.535156 -1.863281 6.535156 -2.105469 Z M 6.535156 -10.960938 "/></g></g></g><g fill="#ffffff" fill-opacity="1"><g transform="translate(201.517389, 196.499987)"><g><path d="M 8.800781 0.0273438 C 10.207031 0.0273438 11.503906 -0.1875 12.71875 -0.648438 C 13.933594 -1.105469 14.984375 -1.753906 15.875 -2.59375 C 16.738281 -3.429688 17.441406 -4.429688 17.953125 -5.617188 C 18.441406 -6.804688 18.710938 -8.101562 18.710938 -9.558594 C 18.710938 -10.988281 18.441406 -12.285156 17.953125 -13.472656 C 17.441406 -14.660156 16.738281 -15.660156 15.875 -16.496094 C 14.984375 -17.335938 13.933594 -17.980469 12.742188 -18.441406 C 11.527344 -18.898438 10.207031 -19.144531 8.800781 -19.144531 L 4.320312 -19.144531 C 3.941406 -19.144531 3.589844 -19.0625 3.292969 -18.925781 C 2.996094 -18.792969 2.753906 -18.628906 2.566406 -18.414062 C 2.375 -18.199219 2.242188 -17.980469 2.132812 -17.738281 C 2.023438 -17.46875 1.996094 -17.226562 1.996094 -16.984375 L 1.996094 -2.160156 C 1.996094 -1.917969 2.023438 -1.675781 2.132812 -1.402344 C 2.242188 -1.132812 2.375 -0.917969 2.566406 -0.703125 C 2.753906 -0.484375 2.996094 -0.296875 3.292969 -0.160156 C 3.589844 -0.0273438 3.941406 0.0273438 4.320312 0.0273438 Z M 8.800781 -4.265625 L 6.910156 -4.265625 C 6.859375 -4.265625 6.777344 -4.292969 6.695312 -4.347656 C 6.589844 -4.402344 6.5625 -4.507812 6.5625 -4.671875 L 6.5625 -14.445312 C 6.5625 -14.578125 6.589844 -14.6875 6.695312 -14.769531 C 6.777344 -14.824219 6.859375 -14.878906 6.910156 -14.878906 L 8.800781 -14.878906 C 9.664062 -14.878906 10.449219 -14.742188 11.125 -14.472656 C 11.773438 -14.203125 12.339844 -13.824219 12.796875 -13.339844 C 13.230469 -12.851562 13.582031 -12.3125 13.796875 -11.664062 C 14.011719 -11.015625 14.148438 -10.3125 14.148438 -9.585938 C 14.148438 -8.828125 14.011719 -8.152344 13.796875 -7.507812 C 13.582031 -6.859375 13.230469 -6.289062 12.796875 -5.804688 C 12.339844 -5.320312 11.773438 -4.941406 11.125 -4.671875 C 10.449219 -4.402344 9.664062 -4.265625 8.800781 -4.265625 Z M 8.800781 -4.265625 "/></g></g></g><g fill="#ffffff" fill-opacity="1"><g transform="translate(229.030426, 196.499987)"><g><path d="M 13.445312 -10.960938 C 13.660156 -11.394531 13.851562 -11.824219 13.960938 -12.257812 C 14.066406 -12.691406 14.148438 -13.148438 14.148438 -13.636719 C 14.148438 -14.335938 14.011719 -15.011719 13.742188 -15.660156 C 13.472656 -16.308594 13.09375 -16.902344 12.609375 -17.414062 C 12.121094 -17.929688 11.503906 -18.332031 10.773438 -18.65625 C 10.042969 -18.980469 9.207031 -19.144531 8.289062 -19.144531 L 4.347656 -19.144531 C 3.96875 -19.144531 3.617188 -19.0625 3.347656 -18.925781 C 3.050781 -18.792969 2.808594 -18.628906 2.617188 -18.414062 C 2.402344 -18.199219 2.269531 -17.980469 2.160156 -17.738281 C 2.050781 -17.46875 2.023438 -17.226562 2.023438 -16.984375 L 2.023438 -2.160156 C 2.023438 -1.917969 2.050781 -1.675781 2.160156 -1.402344 C 2.269531 -1.132812 2.402344 -0.917969 2.617188 -0.703125 C 2.808594 -0.484375 3.050781 -0.296875 3.347656 -0.160156 C 3.617188 -0.0273438 3.96875 0.0273438 4.347656 0.0273438 L 8.882812 0.0273438 C 9.964844 0.0273438 10.933594 -0.136719 11.800781 -0.460938 C 12.664062 -0.78125 13.390625 -1.214844 13.984375 -1.78125 C 14.578125 -2.347656 15.011719 -2.996094 15.335938 -3.753906 C 15.632812 -4.507812 15.796875 -5.320312 15.796875 -6.183594 C 15.796875 -7.046875 15.605469 -7.882812 15.28125 -8.695312 C 14.929688 -9.503906 14.417969 -10.179688 13.714844 -10.773438 C 13.660156 -10.800781 13.636719 -10.828125 13.582031 -10.855469 C 13.527344 -10.882812 13.5 -10.90625 13.445312 -10.960938 Z M 8.261719 -12.367188 L 6.910156 -12.367188 C 6.859375 -12.367188 6.777344 -12.394531 6.695312 -12.472656 C 6.589844 -12.527344 6.5625 -12.636719 6.5625 -12.796875 L 6.5625 -14.445312 C 6.5625 -14.578125 6.589844 -14.6875 6.695312 -14.769531 C 6.777344 -14.824219 6.859375 -14.878906 6.910156 -14.878906 L 8.261719 -14.878906 C 8.667969 -14.878906 8.992188 -14.769531 9.207031 -14.554688 C 9.421875 -14.335938 9.558594 -14.039062 9.558594 -13.636719 C 9.558594 -13.230469 9.421875 -12.90625 9.207031 -12.691406 C 8.964844 -12.472656 8.640625 -12.367188 8.261719 -12.367188 Z M 6.5625 -4.753906 L 6.5625 -7.75 C 6.5625 -7.882812 6.589844 -7.992188 6.695312 -8.074219 C 6.777344 -8.128906 6.859375 -8.179688 6.910156 -8.179688 L 8.882812 -8.179688 C 10.449219 -8.179688 11.230469 -7.53125 11.230469 -6.265625 C 11.230469 -4.96875 10.449219 -4.320312 8.882812 -4.320312 L 6.910156 -4.320312 C 6.859375 -4.320312 6.777344 -4.347656 6.695312 -4.429688 C 6.589844 -4.480469 6.5625 -4.589844 6.5625 -4.753906 Z M 6.5625 -4.753906 "/></g></g></g><g fill="#ffffff" fill-opacity="1"><g transform="translate(253.627463, 196.499987)"><g><path d="M 13.09375 -17.46875 C 12.933594 -17.902344 12.609375 -18.277344 12.175781 -18.628906 C 11.71875 -18.953125 11.179688 -19.144531 10.558594 -19.144531 C 9.910156 -19.144531 9.367188 -18.953125 8.910156 -18.628906 C 8.449219 -18.304688 8.128906 -17.902344 7.964844 -17.46875 L 2.160156 -2.890625 C 2.050781 -2.644531 2.023438 -2.402344 2.023438 -2.132812 C 2.023438 -1.890625 2.050781 -1.648438 2.160156 -1.402344 C 2.269531 -1.132812 2.402344 -0.917969 2.59375 -0.730469 C 2.78125 -0.511719 3.023438 -0.351562 3.320312 -0.214844 C 3.589844 -0.0820312 3.914062 -0.0273438 4.292969 -0.0273438 C 4.832031 -0.0273438 5.292969 -0.160156 5.671875 -0.460938 C 6.019531 -0.730469 6.265625 -1.054688 6.425781 -1.429688 L 7.9375 -5.238281 C 7.964844 -5.292969 8.019531 -5.347656 8.074219 -5.398438 C 8.128906 -5.425781 8.207031 -5.453125 8.261719 -5.453125 L 12.824219 -5.453125 C 12.933594 -5.453125 13.039062 -5.371094 13.148438 -5.238281 L 14.632812 -1.429688 C 14.769531 -1.054688 15.011719 -0.730469 15.390625 -0.460938 C 15.742188 -0.160156 16.199219 -0.0273438 16.765625 -0.0273438 C 17.144531 -0.0273438 17.46875 -0.0820312 17.738281 -0.214844 C 18.007812 -0.351562 18.253906 -0.511719 18.46875 -0.730469 C 18.65625 -0.917969 18.792969 -1.132812 18.898438 -1.402344 C 19.007812 -1.648438 19.0625 -1.890625 19.0625 -2.132812 C 19.0625 -2.402344 19.007812 -2.671875 18.898438 -2.890625 Z M 10.53125 -11.691406 C 10.585938 -11.527344 10.636719 -11.394531 10.691406 -11.257812 C 10.746094 -11.097656 10.828125 -10.960938 10.882812 -10.800781 C 10.933594 -10.609375 11.015625 -10.449219 11.097656 -10.285156 C 11.152344 -10.125 11.203125 -9.964844 11.257812 -9.828125 C 11.285156 -9.746094 11.3125 -9.691406 11.3125 -9.691406 L 9.691406 -9.691406 C 9.71875 -9.71875 9.746094 -9.746094 9.746094 -9.800781 C 9.855469 -10.125 9.988281 -10.421875 10.125 -10.746094 C 10.234375 -11.070312 10.367188 -11.367188 10.53125 -11.691406 Z M 10.53125 -11.691406 "/></g></g></g><g fill="#ffffff" fill-opacity="1"><g transform="translate(281.437508, 196.499987)"><g><path d="M 6.589844 -13.527344 L 6.589844 -17.011719 C 6.589844 -17.253906 6.535156 -17.496094 6.425781 -17.765625 C 6.316406 -18.007812 6.183594 -18.226562 5.992188 -18.441406 C 5.777344 -18.628906 5.535156 -18.792969 5.265625 -18.925781 C 4.996094 -19.0625 4.671875 -19.144531 4.292969 -19.144531 C 3.914062 -19.144531 3.5625 -19.0625 3.292969 -18.925781 C 3.023438 -18.792969 2.78125 -18.628906 2.59375 -18.414062 C 2.375 -18.199219 2.242188 -17.980469 2.132812 -17.738281 C 2.023438 -17.46875 1.996094 -17.226562 1.996094 -16.984375 L 1.996094 -2.132812 C 1.996094 -1.890625 2.023438 -1.648438 2.132812 -1.402344 C 2.242188 -1.132812 2.375 -0.917969 2.566406 -0.703125 C 2.753906 -0.484375 2.996094 -0.296875 3.265625 -0.160156 C 3.535156 -0.0273438 3.886719 0.0273438 4.265625 0.0273438 C 4.644531 0.0273438 4.96875 -0.0273438 5.265625 -0.160156 C 5.535156 -0.296875 5.777344 -0.460938 5.96875 -0.675781 C 6.15625 -0.890625 6.289062 -1.105469 6.398438 -1.378906 C 6.480469 -1.621094 6.535156 -1.863281 6.535156 -2.105469 L 6.535156 -6.695312 L 13.203125 -0.566406 C 13.390625 -0.378906 13.609375 -0.214844 13.878906 -0.109375 C 14.148438 0 14.445312 0.0546875 14.796875 0.0546875 C 15.175781 0.0546875 15.496094 0 15.796875 -0.136719 C 16.066406 -0.269531 16.308594 -0.433594 16.496094 -0.648438 C 16.6875 -0.863281 16.820312 -1.078125 16.929688 -1.351562 C 17.035156 -1.621094 17.089844 -1.863281 17.089844 -2.105469 C 17.089844 -2.671875 16.847656 -3.1875 16.390625 -3.617188 L 9.34375 -10.070312 L 15.121094 -15.417969 C 15.363281 -15.632812 15.550781 -15.875 15.660156 -16.144531 C 15.769531 -16.414062 15.820312 -16.714844 15.820312 -16.984375 C 15.820312 -17.199219 15.769531 -17.441406 15.6875 -17.710938 C 15.578125 -17.953125 15.445312 -18.199219 15.28125 -18.414062 C 15.09375 -18.628906 14.851562 -18.792969 14.578125 -18.925781 C 14.308594 -19.0625 13.984375 -19.144531 13.609375 -19.144531 C 13.257812 -19.144531 12.960938 -19.089844 12.691406 -18.980469 C 12.421875 -18.871094 12.203125 -18.710938 12.015625 -18.523438 Z M 6.589844 -13.527344 "/></g></g></g><g fill="#ffffff" fill-opacity="1"><g transform="translate(307.384547, 196.499987)"><g><path d="M 13.203125 -16.957031 L 13.257812 -7.183594 C 13.257812 -6.804688 13.175781 -6.425781 13.039062 -6.074219 C 12.90625 -5.722656 12.71875 -5.425781 12.445312 -5.15625 C 12.175781 -4.886719 11.878906 -4.699219 11.527344 -4.535156 C 11.179688 -4.375 10.800781 -4.292969 10.394531 -4.292969 L 9.476562 -4.292969 C 9.046875 -4.292969 8.667969 -4.375 8.316406 -4.535156 C 7.964844 -4.699219 7.667969 -4.886719 7.398438 -5.15625 C 7.128906 -5.425781 6.9375 -5.722656 6.804688 -6.074219 C 6.640625 -6.425781 6.589844 -6.804688 6.589844 -7.183594 L 6.589844 -17.011719 C 6.589844 -17.253906 6.535156 -17.496094 6.425781 -17.765625 C 6.316406 -18.007812 6.183594 -18.226562 5.992188 -18.441406 C 5.777344 -18.628906 5.535156 -18.792969 5.265625 -18.925781 C 4.996094 -19.0625 4.671875 -19.144531 4.292969 -19.144531 C 3.914062 -19.144531 3.5625 -19.0625 3.292969 -18.925781 C 3.023438 -18.792969 2.78125 -18.628906 2.59375 -18.414062 C 2.375 -18.199219 2.242188 -17.980469 2.132812 -17.738281 C 2.023438 -17.46875 1.996094 -17.226562 1.996094 -16.984375 L 1.996094 -7.15625 C 1.996094 -6.289062 2.160156 -5.453125 2.511719 -4.589844 C 2.835938 -3.726562 3.320312 -2.96875 3.96875 -2.296875 C 4.617188 -1.59375 5.398438 -1.054688 6.316406 -0.621094 C 7.234375 -0.1875 8.261719 0.0273438 9.449219 0.0273438 L 10.367188 0.0273438 C 11.527344 0.0273438 12.582031 -0.1875 13.5 -0.621094 C 14.417969 -1.054688 15.175781 -1.59375 15.820312 -2.296875 C 16.441406 -2.96875 16.929688 -3.726562 17.28125 -4.589844 C 17.605469 -5.453125 17.792969 -6.289062 17.792969 -7.15625 L 17.792969 -16.984375 C 17.792969 -17.226562 17.738281 -17.46875 17.632812 -17.738281 C 17.523438 -17.980469 17.386719 -18.199219 17.199219 -18.414062 C 16.984375 -18.601562 16.738281 -18.765625 16.46875 -18.898438 C 16.199219 -19.035156 15.875 -19.117188 15.496094 -19.117188 C 15.121094 -19.117188 14.769531 -19.035156 14.5 -18.898438 C 14.230469 -18.765625 13.984375 -18.601562 13.796875 -18.386719 C 13.582031 -18.171875 13.445312 -17.953125 13.339844 -17.710938 C 13.230469 -17.441406 13.203125 -17.199219 13.203125 -16.957031 Z M 13.203125 -16.957031 "/></g></g></g></svg>