<svg xmlns="http://www.w3.org/2000/svg" xmlns:xlink="http://www.w3.org/1999/xlink" width="500" zoomAndPan="magnify" viewBox="0 0 375 374.999991" height="500" preserveAspectRatio="xMidYMid meet" version="1.0"><path fill="#f1a634" d="M 344.839844 201.40625 L 332.984375 188.210938 L 344.839844 175.019531 C 349.007812 170.378906 352.703125 165.390625 355.921875 160.054688 C 359.140625 154.714844 361.828125 149.121094 363.984375 143.269531 C 368.378906 131.511719 370.585938 119.359375 370.613281 106.808594 C 370.640625 99.996094 369.976562 93.253906 368.625 86.578125 C 367.277344 79.902344 365.265625 73.433594 362.589844 67.167969 C 361.3125 64.121094 359.890625 61.144531 358.324219 58.234375 C 356.757812 55.324219 355.058594 52.496094 353.21875 49.75 C 351.378906 47.003906 349.414062 44.355469 347.320312 41.800781 C 345.226562 39.242188 343.011719 36.796875 340.683594 34.453125 C 338.351562 32.109375 335.914062 29.886719 333.367188 27.78125 C 330.824219 25.671875 328.183594 23.695312 325.445312 21.839844 C 322.710938 19.988281 319.890625 18.273438 316.988281 16.695312 C 314.085938 15.113281 311.117188 13.675781 308.074219 12.382812 C 301.785156 9.703125 295.285156 7.695312 288.578125 6.351562 C 281.871094 5.011719 275.097656 4.371094 268.261719 4.429688 L 3.070312 4.429688 L 3.070312 125.378906 L 268.261719 125.066406 C 268.945312 125.066406 269.628906 125.03125 270.3125 124.964844 C 270.992188 124.898438 271.671875 124.796875 272.34375 124.664062 C 273.015625 124.527344 273.679688 124.363281 274.335938 124.164062 C 274.992188 123.964844 275.636719 123.730469 276.269531 123.46875 C 276.902344 123.207031 277.523438 122.914062 278.125 122.589844 C 278.730469 122.265625 279.316406 121.914062 279.886719 121.535156 C 280.457031 121.152344 281.007812 120.746094 281.539062 120.308594 C 282.066406 119.875 282.574219 119.414062 283.058594 118.929688 C 283.542969 118.445312 284.003906 117.9375 284.4375 117.40625 C 284.875 116.878906 285.28125 116.328125 285.660156 115.757812 C 286.042969 115.1875 286.394531 114.601562 286.71875 113.996094 C 287.039062 113.390625 287.332031 112.773438 287.59375 112.140625 C 287.859375 111.503906 288.089844 110.859375 288.289062 110.203125 C 288.488281 109.546875 288.652344 108.882812 288.785156 108.210938 C 288.921875 107.539062 289.019531 106.863281 289.085938 106.179688 C 289.15625 105.496094 289.1875 104.8125 289.1875 104.128906 C 289.1875 103.441406 289.15625 102.757812 289.085938 102.078125 C 289.019531 101.394531 288.921875 100.71875 288.785156 100.046875 C 288.652344 99.375 288.484375 98.710938 288.289062 98.054688 C 288.089844 97.398438 287.859375 96.753906 287.59375 96.121094 C 287.332031 95.484375 287.039062 94.867188 286.71875 94.261719 C 286.394531 93.65625 286.042969 93.070312 285.660156 92.5 C 285.28125 91.929688 284.871094 91.382812 284.4375 90.851562 C 284.003906 90.320312 283.542969 89.8125 283.058594 89.328125 C 282.574219 88.84375 282.066406 88.386719 281.535156 87.949219 C 281.007812 87.515625 280.457031 87.109375 279.886719 86.726562 C 279.316406 86.347656 278.730469 85.992188 278.125 85.671875 C 277.519531 85.347656 276.902344 85.054688 276.269531 84.792969 C 275.636719 84.53125 274.992188 84.300781 274.335938 84.101562 C 273.679688 83.902344 273.015625 83.734375 272.34375 83.601562 C 271.671875 83.46875 270.992188 83.367188 270.3125 83.300781 C 269.628906 83.234375 268.945312 83.199219 268.261719 83.199219 L 44.957031 83.199219 L 44.957031 46.332031 L 268.242188 46.332031 C 270.222656 46.332031 272.199219 46.429688 274.167969 46.625 C 276.140625 46.816406 278.097656 47.109375 280.039062 47.496094 C 281.980469 47.878906 283.902344 48.359375 285.796875 48.9375 C 287.691406 49.511719 289.554688 50.175781 291.382812 50.9375 C 293.214844 51.695312 295.003906 52.539062 296.75 53.472656 C 298.496094 54.40625 300.191406 55.421875 301.839844 56.523438 C 303.488281 57.625 305.074219 58.804688 306.605469 60.058594 C 308.136719 61.316406 309.605469 62.644531 311.003906 64.046875 C 312.40625 65.445312 313.734375 66.910156 314.988281 68.441406 C 316.246094 69.972656 317.425781 71.5625 318.523438 73.210938 C 319.625 74.855469 320.640625 76.554688 321.578125 78.300781 C 322.511719 80.046875 323.355469 81.835938 324.113281 83.664062 C 324.871094 85.496094 325.539062 87.355469 326.113281 89.253906 C 326.6875 91.148438 327.167969 93.066406 327.554688 95.007812 C 327.941406 96.953125 328.230469 98.910156 328.425781 100.878906 C 328.621094 102.851562 328.71875 104.828125 328.71875 106.808594 C 328.71875 108.789062 328.621094 110.765625 328.425781 112.734375 C 328.234375 114.707031 327.941406 116.664062 327.554688 118.605469 C 327.171875 120.546875 326.691406 122.46875 326.113281 124.363281 C 325.539062 126.257812 324.875 128.121094 324.117188 129.949219 C 323.359375 131.78125 322.511719 133.570312 321.578125 135.316406 C 320.644531 137.0625 319.628906 138.757812 318.527344 140.40625 C 317.425781 142.054688 316.25 143.640625 314.992188 145.171875 C 313.734375 146.703125 312.40625 148.167969 311.007812 149.570312 C 309.605469 150.96875 308.140625 152.300781 306.609375 153.554688 C 305.078125 154.8125 303.488281 155.988281 301.839844 157.089844 C 300.195312 158.191406 298.496094 159.207031 296.75 160.140625 C 295.003906 161.074219 293.214844 161.917969 291.386719 162.675781 C 289.554688 163.433594 287.691406 164.101562 285.796875 164.675781 C 283.902344 165.25 281.980469 165.730469 280.039062 166.117188 C 278.097656 166.5 276.140625 166.792969 274.167969 166.984375 C 272.199219 167.179688 270.222656 167.273438 268.242188 167.273438 L 3.054688 167.273438 L 3.054688 371.957031 L 44.957031 371.957031 L 44.957031 209.148438 L 268.242188 209.148438 C 270.238281 209.125 272.230469 209.199219 274.21875 209.371094 C 276.207031 209.542969 278.183594 209.816406 280.144531 210.183594 C 282.105469 210.550781 284.046875 211.015625 285.960938 211.574219 C 287.878906 212.136719 289.761719 212.789062 291.613281 213.535156 C 293.464844 214.285156 295.273438 215.121094 297.042969 216.046875 C 298.8125 216.972656 300.53125 217.984375 302.199219 219.078125 C 303.867188 220.175781 305.476562 221.351562 307.027344 222.605469 C 308.582031 223.863281 310.066406 225.191406 311.488281 226.59375 C 312.90625 227.996094 314.253906 229.46875 315.53125 231.003906 C 316.804688 232.539062 318 234.136719 319.117188 235.789062 C 320.234375 237.445312 321.265625 239.148438 322.214844 240.90625 C 323.160156 242.664062 324.019531 244.464844 324.789062 246.304688 C 325.558594 248.148438 326.238281 250.023438 326.820312 251.933594 C 327.402344 253.839844 327.890625 255.773438 328.285156 257.730469 C 328.675781 259.6875 328.972656 261.660156 329.167969 263.648438 C 329.367188 265.632812 329.464844 267.625 329.464844 269.621094 C 329.464844 271.617188 329.367188 273.609375 329.167969 275.59375 C 328.972656 277.582031 328.675781 279.554688 328.285156 281.511719 C 327.890625 283.46875 327.402344 285.402344 326.820312 287.3125 C 326.238281 289.21875 325.558594 291.09375 324.789062 292.9375 C 324.019531 294.777344 323.160156 296.578125 322.214844 298.335938 C 321.265625 300.09375 320.234375 301.796875 319.117188 303.453125 C 318 305.109375 316.804688 306.703125 315.53125 308.238281 C 314.253906 309.777344 312.90625 311.246094 311.488281 312.648438 C 310.066406 314.050781 308.582031 315.378906 307.027344 316.636719 C 305.476562 317.890625 303.867188 319.066406 302.199219 320.164062 C 300.53125 321.257812 298.8125 322.269531 297.042969 323.195312 C 295.273438 324.121094 293.464844 324.960938 291.613281 325.707031 C 289.761719 326.453125 287.878906 327.105469 285.960938 327.667969 C 284.046875 328.226562 282.105469 328.691406 280.144531 329.058594 C 278.183594 329.425781 276.207031 329.699219 274.21875 329.871094 C 272.230469 330.042969 270.238281 330.117188 268.242188 330.09375 L 127.859375 330.09375 L 127.859375 290.710938 L 268.304688 290.710938 C 268.984375 290.699219 269.65625 290.652344 270.328125 290.570312 C 271 290.492188 271.667969 290.378906 272.328125 290.234375 C 272.988281 290.089844 273.640625 289.914062 274.285156 289.707031 C 274.929688 289.5 275.5625 289.261719 276.183594 288.992188 C 276.804688 288.726562 277.410156 288.425781 278 288.097656 C 278.59375 287.773438 279.167969 287.417969 279.726562 287.035156 C 280.285156 286.648438 280.820312 286.242188 281.339844 285.804688 C 281.855469 285.371094 282.351562 284.910156 282.824219 284.425781 C 283.300781 283.945312 283.75 283.4375 284.171875 282.910156 C 284.597656 282.386719 284.996094 281.839844 285.367188 281.273438 C 285.738281 280.707031 286.082031 280.125 286.394531 279.527344 C 286.710938 278.929688 286.996094 278.316406 287.253906 277.6875 C 287.507812 277.0625 287.730469 276.425781 287.925781 275.777344 C 288.121094 275.128906 288.28125 274.472656 288.414062 273.808594 C 288.542969 273.144531 288.640625 272.476562 288.707031 271.804688 C 288.769531 271.128906 288.804688 270.453125 288.804688 269.777344 C 288.804688 269.101562 288.769531 268.425781 288.707031 267.753906 C 288.640625 267.082031 288.542969 266.410156 288.414062 265.746094 C 288.28125 265.082031 288.121094 264.425781 287.925781 263.78125 C 287.730469 263.132812 287.507812 262.492188 287.253906 261.867188 C 286.996094 261.242188 286.710938 260.628906 286.394531 260.03125 C 286.082031 259.429688 285.738281 258.847656 285.367188 258.285156 C 284.996094 257.71875 284.597656 257.171875 284.171875 256.644531 C 283.75 256.117188 283.300781 255.613281 282.824219 255.128906 C 282.351562 254.644531 281.855469 254.1875 281.339844 253.75 C 280.820312 253.316406 280.285156 252.90625 279.726562 252.523438 C 279.167969 252.140625 278.59375 251.785156 278 251.457031 C 277.410156 251.128906 276.804688 250.832031 276.183594 250.5625 C 275.5625 250.292969 274.929688 250.054688 274.285156 249.847656 C 273.640625 249.640625 272.988281 249.464844 272.328125 249.320312 C 271.667969 249.175781 271 249.066406 270.328125 248.984375 C 269.65625 248.90625 268.984375 248.859375 268.304688 248.84375 L 85.566406 248.84375 L 85.992188 371.957031 L 268.242188 371.957031 C 275.078125 372.015625 281.851562 371.375 288.554688 370.035156 C 295.257812 368.695312 301.757812 366.683594 308.046875 364.003906 C 311.089844 362.710938 314.058594 361.273438 316.960938 359.695312 C 319.863281 358.113281 322.683594 356.398438 325.417969 354.546875 C 328.15625 352.695312 330.796875 350.714844 333.34375 348.609375 C 335.886719 346.503906 338.324219 344.277344 340.65625 341.9375 C 342.988281 339.59375 345.199219 337.144531 347.292969 334.589844 C 349.386719 332.035156 351.355469 329.382812 353.191406 326.636719 C 355.03125 323.890625 356.734375 321.0625 358.296875 318.15625 C 359.863281 315.246094 361.285156 312.265625 362.5625 309.21875 C 365.230469 302.960938 367.238281 296.496094 368.582031 289.828125 C 369.929688 283.15625 370.585938 276.421875 370.554688 269.617188 C 370.53125 257.066406 368.320312 244.914062 363.929688 233.15625 C 361.78125 227.308594 359.101562 221.714844 355.890625 216.375 C 352.679688 211.039062 348.996094 206.046875 344.839844 201.40625 Z M 344.839844 201.40625 " fill-opacity="1" fill-rule="nonzero"/></svg>